<svg width="96" height="127" viewBox="0 0 96 127" fill="none" xmlns="http://www.w3.org/2000/svg">
<path d="M51.2695 61.5898C50.8434 64.5436 50.5722 67.5177 50.457 70.4998L51.732 70.6923C51.8428 67.7086 52.1106 64.7329 52.5345 61.7773L51.2695 61.5898Z" fill="#5C5A53"/>
<path d="M53.2111 42.8839C53.6586 40.3439 54.1586 38.0889 54.6761 36.1014L53.4111 35.8164C52.8886 37.8439 52.3836 40.1439 51.9336 42.7364L53.2111 42.8839Z" fill="#5C5A53"/>
<path d="M45.1716 62.4826L46.4416 62.3101C46.3066 61.3101 46.1466 60.2676 45.9541 59.1851C45.7041 57.8276 45.4116 56.3651 45.0391 54.8301L43.7891 55.1451C44.1516 56.6451 44.4441 58.0501 44.6791 59.3676C44.8791 60.4426 45.0366 61.4826 45.1716 62.4826Z" fill="#5C5A53"/>
<path d="M51.7817 43.6484C51.5217 45.2284 51.2859 46.9134 51.0742 48.7034L52.3467 48.8534C52.5567 47.0609 52.7967 45.3784 53.0567 43.7984L51.7817 43.6484Z" fill="#5C5A53"/>
<path d="M58.0859 28.6328C55.2559 33.4453 56.5559 37.8528 56.5559 37.8528C58.9984 33.8653 58.0859 28.6328 58.0859 28.6328Z" fill="#5C5A53"/>
<path d="M50.2311 40.5239C50.2311 40.5239 52.8486 37.6039 52.3461 34.1289C52.3461 34.1289 49.7886 36.2964 50.2311 40.5239Z" fill="#5C5A53"/>
<path d="M49.2562 48.3202L49.1888 37.2327L47.9062 37.2227L47.9737 48.3127L49.2562 48.3202Z" fill="#5C5A53"/>
<path d="M44.8136 53.9361C44.1941 51.5224 43.4473 49.1432 42.5761 46.8086L41.3711 47.2511C42.2284 49.5436 42.9627 51.8803 43.5711 54.2511L44.8136 53.9361Z" fill="#5C5A53"/>
<path d="M49.3688 66.973L49.3112 57.553L48.0312 57.543L48.0887 66.963L49.3688 66.973Z" fill="#5C5A53"/>
<path d="M49.3094 56.6269L49.2644 49.2419L47.9844 49.2344L48.0294 56.6194L49.3094 56.6269Z" fill="#5C5A53"/>
<path d="M49.8936 27.1504C49.8243 28.222 50.0006 29.2952 50.4092 30.2883C50.8177 31.2813 51.4477 32.1679 52.2511 32.8804C52.2511 32.8804 52.2711 29.1229 49.8936 27.1504Z" fill="#5C5A53"/>
<path d="M47.9016 36.2997L49.1841 36.3097L49.1341 27.9397L47.8516 27.9297L47.9016 36.2997Z" fill="#5C5A53"/>
<path d="M53.6484 34.9259L54.9134 35.2109C55.5175 32.9718 56.2538 30.7704 57.1184 28.6184L55.8684 28.2109C54.9942 30.4026 54.2529 32.645 53.6484 34.9259Z" fill="#5C5A53"/>
<path d="M50.4277 71.4336C50.3677 73.8011 50.4527 75.1836 50.4527 75.2136L51.7327 75.1311C51.7327 75.1036 51.6552 73.8286 51.7027 71.6311L50.4277 71.4336Z" fill="#5C5A53"/>
<path d="M62.3009 32.6606C63.3009 30.8906 64.4109 29.1206 65.6209 27.3706L64.5684 26.6406C63.3184 28.4456 62.1834 30.2681 61.1484 32.0931L62.3009 32.6606Z" fill="#5C5A53"/>
<path d="M48.1387 75.1748L49.4187 75.1673L49.3763 67.8948L48.0938 67.8848L48.1387 75.1748Z" fill="#5C5A53"/>
<path d="M63.6431 36.825C65.6027 34.4135 66.5787 31.3506 66.3756 28.25C66.3756 28.25 63.1606 32 63.6431 36.825Z" fill="#5C5A53"/>
<path d="M67.5339 66.7784L67.5039 68.0584C67.8664 68.0584 68.2239 68.0584 68.5789 68.0584C79.5064 68.0584 86.3989 64.1159 86.6964 63.9434L86.0514 62.8359C85.9789 62.8909 78.7039 67.0434 67.5339 66.7784Z" fill="#5C5A53"/>
<path d="M45.6816 75.1094L46.9566 75.2344C46.9791 75.0019 47.4216 70.2669 46.5616 63.2344L45.2891 63.4069C46.1266 70.3219 45.6866 75.0544 45.6816 75.1094Z" fill="#5C5A53"/>
<path d="M43.7209 41.568L44.9834 41.338C44.3359 37.7455 43.6359 34.798 42.9609 32.418L41.7109 32.7405C42.3559 35.018 43.0609 37.9355 43.7209 41.568Z" fill="#5C5A53"/>
<path d="M43.7286 31.0273C43.6616 32.0985 43.8401 33.1708 44.2504 34.1625C44.6606 35.1542 45.2919 36.0391 46.0961 36.7498C46.0961 36.7498 46.1061 32.9998 43.7286 31.0273Z" fill="#5C5A53"/>
<path d="M37.4336 33.8125C38.5111 38.36 42.8461 41.43 42.8461 41.43C41.4611 36.0225 37.4336 33.8125 37.4336 33.8125Z" fill="#5C5A53"/>
<path d="M37.1405 38.1425L38.2705 37.535C37.1439 35.5393 35.907 33.608 34.5655 31.75L33.4805 32.4375C34.8074 34.2684 36.0294 36.1731 37.1405 38.1425Z" fill="#5C5A53"/>
<path d="M42.2498 45.9443C41.2377 43.3369 40.0586 40.7975 38.7198 38.3418L37.5898 38.9468C38.9 41.3484 40.054 43.8319 41.0448 46.3818L42.2498 45.9443Z" fill="#5C5A53"/>
<path d="M45.1478 42.25L43.8828 42.48C44.2203 44.415 44.5428 46.5375 44.8353 48.8625L46.1078 48.7025C45.8103 46.3525 45.5003 44.2075 45.1478 42.25Z" fill="#5C5A53"/>
<path d="M37.5003 24.3906C37.126 25.3975 36.9868 26.4767 37.0934 27.5456C37.2 28.6145 37.5495 29.645 38.1153 30.5581C38.1153 30.5581 39.1953 26.9656 37.5003 24.3906Z" fill="#5C5A53"/>
<path d="M52.9991 52.7695C52.3991 55.187 51.9466 57.4395 51.6091 59.457C51.5391 59.8695 51.4741 60.2745 51.4141 60.677L52.6816 60.8695C52.7441 60.462 52.8091 60.0495 52.8791 59.6195C53.2166 57.6195 53.6691 55.3695 54.2716 52.9545L52.9991 52.7695Z" fill="#5C5A53"/>
<path d="M74.414 45.5723C74.4445 45.456 74.4484 45.3343 74.4253 45.2164C74.4023 45.0984 74.3528 44.9871 74.2807 44.891C74.2085 44.7948 74.1156 44.7162 74.0088 44.661C73.902 44.6058 73.7841 44.5755 73.664 44.5723C71.9453 44.6019 70.2481 44.96 68.664 45.6273C66.164 46.6473 62.764 48.8773 60.664 53.7323C60.6137 53.8479 60.5915 53.9737 60.5991 54.0996C60.6068 54.2254 60.644 54.3477 60.7079 54.4564C60.7717 54.5651 60.8604 54.6571 60.9666 54.7251C61.0728 54.793 61.1935 54.8349 61.319 54.8473C61.3365 54.8473 61.599 54.8723 62.0415 54.8723C64.439 54.8648 72.1165 54.1748 74.414 45.5723ZM72.534 46.2323C72.0834 47.5386 71.3877 48.7469 70.484 49.7923C70.3749 49.3382 70.2015 48.9022 69.969 48.4973C69.7004 48.0163 69.3492 47.5863 68.9315 47.2273C70.0766 46.7195 71.2906 46.3842 72.534 46.2323ZM67.109 48.2323C67.2756 48.1173 67.4481 48.0098 67.6265 47.9098C68.1556 48.1814 68.5859 48.6126 68.8565 49.1423C69.118 49.5813 69.2698 50.077 69.299 50.5873C69.3042 50.7183 69.2873 50.8493 69.249 50.9748L68.999 51.1723C68.8432 51.153 68.6942 51.0973 68.564 51.0098C68.1389 50.7253 67.7904 50.3406 67.549 49.8898C67.2856 49.4513 67.1329 48.9554 67.104 48.4448C67.0997 48.3706 67.1014 48.2962 67.109 48.2223V48.2323ZM65.8965 49.1448C66.0031 49.6291 66.1826 50.0944 66.429 50.5248C66.7447 51.0956 67.1796 51.5918 67.704 51.9798C66.1361 52.7772 64.412 53.2201 62.654 53.2773C63.4547 51.6985 64.5562 50.2913 65.8965 49.1348V49.1448Z" fill="#5C5A53"/>
<path d="M67.5806 78.2502L67.5356 76.9702C67.5031 76.9702 64.1456 77.0727 61.4406 75.7852L60.8906 76.9426C63.4331 78.1526 66.3731 78.2551 67.2956 78.2551C67.4581 78.2501 67.5581 78.2502 67.5806 78.2502Z" fill="#5C5A53"/>
<path d="M88.0483 66.4711C87.9241 66.238 87.7126 66.0635 87.4602 65.9857C87.2077 65.908 86.9347 65.9333 86.7008 66.0561C86.6208 66.0986 78.6358 70.2486 67.5708 69.6411C67.3056 69.6268 67.0456 69.7185 66.848 69.896C66.6503 70.0734 66.5313 70.3221 66.5171 70.5873C66.5028 70.8526 66.5945 71.1126 66.772 71.3102C66.9494 71.5078 67.1981 71.6268 67.4633 71.6411C68.27 71.6828 69.0591 71.7044 69.8308 71.7061C80.2033 71.7061 87.3158 67.9936 87.6358 67.8236C87.8698 67.6989 88.0448 67.4864 88.1221 67.2328C88.1995 66.9791 88.1729 66.7052 88.0483 66.4711Z" fill="#5C5A53"/>
<path d="M34.0155 31.013C33.098 29.7855 32.1205 28.568 31.068 27.373L30.1055 28.218C31.1055 29.363 32.0505 30.528 32.9305 31.7005L34.0155 31.013Z" fill="#5C5A53"/>
<path d="M32.4636 34.8923C32.4636 34.8923 32.4311 30.8923 29.7136 29.3398C29.7086 29.3398 28.6786 31.8948 32.4636 34.8923Z" fill="#5C5A53"/>
<path d="M16.9698 61.5877C16.9606 61.8096 17.0287 62.0278 17.1623 62.2052C17.1799 62.2313 17.1991 62.2564 17.2198 62.2802C17.3699 62.471 17.5872 62.5971 17.8273 62.6327C18.9373 63.0952 22.9073 64.5627 28.3973 64.5627C30.5319 64.5646 32.6609 64.3442 34.7498 63.9052C34.8733 63.8792 34.9904 63.8292 35.0945 63.758C35.1986 63.6868 35.2877 63.5958 35.3567 63.4902C35.4256 63.3846 35.4731 63.2664 35.4963 63.1424C35.5196 63.0185 35.5183 62.8911 35.4923 62.7677C35.4664 62.6442 35.4164 62.5271 35.3452 62.423C35.274 62.3189 35.183 62.2298 35.0773 62.1608C34.9717 62.0919 34.8535 62.0444 34.7296 62.0211C34.6056 61.9979 34.4783 61.9992 34.3548 62.0252C26.6948 63.6427 20.5123 61.6102 18.8073 60.9527C18.6923 60.3952 18.5873 59.8327 18.5023 59.2727C18.2762 57.7548 18.1626 56.2223 18.1623 54.6877C18.1399 46.7643 21.2018 39.1431 26.6998 33.4377C28.1423 34.7677 31.3623 38.0402 34.4823 43.3052C38.3498 49.8352 42.8123 60.8052 42.1023 76.0252C42.0998 76.0643 42.0998 76.1035 42.1023 76.1427C42.2648 78.2427 43.8398 82.2152 48.6448 82.2152H49.0448C53.8498 82.2152 55.4248 78.2427 55.5873 76.1427C55.5898 76.1035 55.5898 76.0643 55.5873 76.0252C54.8798 60.8552 59.3148 49.9027 63.1598 43.3852C66.3373 38.0002 69.6448 34.6727 71.0623 33.3852C76.5975 39.1004 79.6816 46.7515 79.6573 54.7077C79.6571 56.2415 79.5435 57.7731 79.3173 59.2902C79.2588 59.7114 79.1753 60.1288 79.0673 60.5402C79.0523 60.5977 79.0373 60.6627 79.0198 60.7302C77.5198 61.3227 71.2123 63.5152 63.3398 61.8527C63.0905 61.8 62.8305 61.8484 62.6169 61.9874C62.4034 62.1265 62.2538 62.3446 62.2011 62.5939C62.1484 62.8432 62.1968 63.1032 62.3358 63.3168C62.4749 63.5304 62.693 63.68 62.9423 63.7327C65.0286 64.1729 67.1551 64.3949 69.2873 64.3952C75.6173 64.3952 79.9298 62.4427 80.1623 62.3352C80.4654 62.1292 80.6942 61.8312 80.8148 61.4852L80.9323 60.9977C81.0542 60.5321 81.1477 60.0596 81.2123 59.5827C81.4514 57.9712 81.5717 56.3443 81.5723 54.7152C81.5856 50.3705 80.7259 46.0675 79.0442 42.0615C77.3624 38.0556 74.8929 34.4283 71.7823 31.3952C71.6262 31.2427 71.423 31.1477 71.2058 31.1259C70.9887 31.1041 70.7706 31.1567 70.5873 31.2752V31.2602C70.3973 31.4102 65.9098 34.9952 61.5548 42.3427C57.5548 49.0927 52.9498 60.4102 53.6673 76.0652C53.5998 76.7027 53.0498 80.3152 49.0473 80.3152H48.6473C44.6473 80.3152 44.0923 76.6952 44.0273 76.0652C44.7423 60.4102 40.1348 49.0877 36.1373 42.3427C31.7848 34.9952 27.2973 31.4102 27.1073 31.2602L27.0823 31.2927C26.903 31.1992 26.6987 31.1651 26.4988 31.1952C26.2989 31.2253 26.1136 31.3181 25.9698 31.4602C22.8789 34.4903 20.4258 38.1085 18.7551 42.1016C17.0845 46.0946 16.2301 50.3817 16.2423 54.7102C16.2425 56.3402 16.3637 57.968 16.6048 59.5802C16.6973 60.2352 16.8248 60.9152 16.9698 61.5877Z" fill="#5C5A53"/>
<path d="M36.226 54.8396C36.3511 54.8269 36.4715 54.785 36.5775 54.7173C36.6834 54.6495 36.772 54.5578 36.836 54.4496C36.899 54.3404 36.9359 54.2182 36.9437 54.0924C36.9515 53.9666 36.93 53.8407 36.881 53.7246C32.8635 44.4221 23.976 44.5646 23.881 44.5646C23.761 44.5683 23.6433 44.5989 23.5368 44.6542C23.4302 44.7096 23.3375 44.7882 23.2655 44.8842C23.1934 44.9803 23.1439 45.0913 23.1207 45.2091C23.0974 45.3268 23.1009 45.4483 23.131 45.5646C25.431 54.1671 33.1085 54.8571 35.506 54.8571C35.946 54.8646 36.2085 54.8421 36.226 54.8396ZM27.061 49.7896C26.159 48.751 25.464 47.5494 25.0135 46.2496C26.2476 46.4103 27.4524 46.747 28.591 47.2496C28.184 47.6054 27.8407 48.0282 27.576 48.4996C27.3436 48.9028 27.1702 49.3372 27.061 49.7896ZM28.986 50.9996C28.8557 51.0871 28.7067 51.1428 28.551 51.1621L28.301 50.9621C28.191 50.6321 28.246 49.9296 28.6985 49.1321C28.9415 48.6816 29.2908 48.2971 29.716 48.0121C29.7759 47.9748 29.8385 47.9422 29.9035 47.9146C30.086 48.0221 30.266 48.1321 30.446 48.2521C30.4512 48.3128 30.4512 48.3739 30.446 48.4346C30.4053 48.9429 30.2534 49.4362 30.0011 49.8794C29.7489 50.3226 29.4023 50.705 28.986 50.9996ZM29.8385 51.9696C30.363 51.581 30.7985 51.0849 31.116 50.5146C31.3588 50.0902 31.5366 49.6317 31.6435 49.1546C32.9844 50.3005 34.0885 51.6976 34.8935 53.2671C33.1339 53.2093 31.4084 52.7664 29.8385 51.9696Z" fill="#5C5A53"/>
<path d="M63.1645 59.2875L62.832 60.5375C64.689 61.0134 66.6002 61.2445 68.517 61.225C71.8708 61.189 75.2031 60.6841 78.417 59.725L78.0245 58.5C77.9445 58.525 69.8095 61.0775 63.1645 59.2875Z" fill="#5C5A53"/>
<path d="M30.9039 78.4264C31.0514 78.4264 34.6014 78.3414 37.5114 76.7539L36.8989 75.6289C34.2689 77.0614 30.9114 77.1464 30.8789 77.1464L30.9039 78.4264Z" fill="#5C5A53"/>
<path d="M28.7503 71.6332C28.8816 71.6259 29.0103 71.5929 29.1288 71.536C29.2474 71.4791 29.3536 71.3993 29.4413 71.3014C29.5291 71.2034 29.5967 71.0891 29.6402 70.965C29.6838 70.8409 29.7025 70.7095 29.6953 70.5782C29.6881 70.4468 29.6551 70.3182 29.5982 70.1997C29.5412 70.0811 29.4615 69.9749 29.3635 69.8872C29.2656 69.7994 29.1513 69.7318 29.0272 69.6882C28.9031 69.6446 28.7716 69.6259 28.6403 69.6332C17.6103 70.2357 9.64032 66.1132 9.51282 66.0482C9.28539 65.9614 9.0341 65.9605 8.80608 66.0457C8.57806 66.131 8.38896 66.2965 8.27425 66.5112C8.15953 66.7259 8.12707 66.9751 8.18296 67.212C8.23885 67.4489 8.37924 67.6573 8.57782 67.7982C8.89782 67.9682 16.0078 71.6807 26.3803 71.6807C27.1553 71.6923 27.9453 71.6765 28.7503 71.6332Z" fill="#5C5A53"/>
<path d="M28.7134 68.0577L28.6834 66.7776C17.5184 67.0426 10.2409 62.8902 10.1684 62.8477L9.52344 63.9552C9.82094 64.1277 16.7109 68.0702 27.6409 68.0702C28.0009 68.0702 28.3534 68.0677 28.7134 68.0577Z" fill="#5C5A53"/>
<path d="M73.5136 73.3567C73.4586 73.3767 67.7986 75.3292 62.7636 73.2442C62.6471 73.1959 62.5222 73.1711 62.396 73.1711C62.2699 73.1711 62.145 73.196 62.0284 73.2442C61.9119 73.2925 61.806 73.3633 61.7168 73.4525C61.6276 73.5417 61.5569 73.6476 61.5086 73.7642C61.4604 73.8807 61.4355 74.0056 61.4355 74.1318C61.4356 74.2579 61.4604 74.3828 61.5087 74.4994C61.557 74.6159 61.6278 74.7218 61.717 74.811C61.8062 74.9002 61.9121 74.9709 62.0286 75.0192C63.9269 75.7796 65.9563 76.1593 68.0011 76.1367C69.0643 76.136 70.1259 76.0524 71.1761 75.8867C68.3009 78.9081 64.8411 81.3131 61.0071 82.9552C57.1731 84.5974 53.0452 85.4424 48.8743 85.4389C44.7035 85.4354 40.5769 84.5834 36.7457 82.9348C32.9145 81.2862 29.4587 78.8754 26.5886 75.8492C27.7161 76.0402 28.8576 76.1364 30.0011 76.1367C32.046 76.1593 34.0753 75.7796 35.9736 75.0192C36.1014 74.9803 36.2197 74.9153 36.3209 74.8281C36.4221 74.741 36.504 74.6337 36.5614 74.5131C36.6188 74.3925 36.6504 74.2613 36.6541 74.1278C36.6579 73.9943 36.6338 73.8615 36.5833 73.7378C36.5329 73.6142 36.4571 73.5024 36.361 73.4097C36.2649 73.317 36.1505 73.2453 36.0251 73.1993C35.8997 73.1534 35.7661 73.134 35.6329 73.1426C35.4996 73.1512 35.3696 73.1875 35.2511 73.2492C30.2286 75.3317 24.5786 73.3867 24.5011 73.3617C24.2608 73.2767 23.9965 73.2906 23.7664 73.4003C23.5363 73.51 23.359 73.7065 23.2736 73.9467C23.2302 74.0684 23.2122 74.1978 23.2208 74.3268C23.2294 74.4558 23.2644 74.5817 23.3236 74.6967C23.3277 74.9056 23.4016 75.1072 23.5336 75.2692C26.5401 78.9758 30.3222 81.9787 34.6139 84.0667C38.9057 86.1547 43.6027 87.277 48.3748 87.3547C53.1468 87.4323 57.8779 86.4635 62.2353 84.5164C66.5927 82.5692 70.4706 79.691 73.5961 76.0842C73.8461 75.8042 74.0711 75.5292 74.2836 75.2642C74.3435 75.189 74.3908 75.1045 74.4236 75.0142C74.6054 74.8751 74.7314 74.6755 74.7787 74.4515C74.826 74.2276 74.7916 73.9941 74.6815 73.7933C74.5715 73.5926 74.3932 73.438 74.1789 73.3574C73.9647 73.2768 73.7286 73.2757 73.5136 73.3542V73.3567Z" fill="#5C5A53"/>
<path d="M54.2656 30.7709C53.7131 26.1309 49.7656 22.5859 49.7656 22.5859C50.5156 28.1159 54.2656 30.7709 54.2656 30.7709Z" fill="#5C5A53"/>
<path d="M57.4791 27.7614C57.98 26.5367 58.5839 25.3567 59.2841 24.2339L58.7516 23.8689L58.2266 23.5039C58.1441 23.6214 57.3241 24.8314 56.2266 27.3539L57.4791 27.7614Z" fill="#5C5A53"/>
<path d="M60.7783 40.0008C60.7783 40.0008 63.4708 37.5008 62.8958 34.1758C62.1223 34.9211 61.5293 35.8334 61.1623 36.843C60.7953 37.8526 60.664 38.9327 60.7783 40.0008Z" fill="#5C5A53"/>
<path d="M59.3304 31.5003C59.3304 31.5003 61.0354 28.1553 59.8079 25.3203C59.2624 26.2458 58.9357 27.2838 58.853 28.355C58.7702 29.4261 58.9335 30.502 59.3304 31.5003Z" fill="#5C5A53"/>
<path d="M60.6995 32.9004C59.1773 35.6663 57.8232 38.5215 56.6445 41.4504L57.787 42.0479C58.9633 39.1062 60.3201 36.2399 61.8495 33.4654L60.6995 32.9004Z" fill="#5C5A53"/>
<path d="M56.3037 42.3125C55.0883 45.4357 54.0582 48.6279 53.2188 51.8725L54.4912 52.065C55.3009 48.9603 56.2875 45.9045 57.4463 42.9125L56.3037 42.3125Z" fill="#5C5A53"/>
<path d="M46.918 33.2506C45.653 27.8131 41.668 25.5156 41.668 25.5156C42.6505 30.0781 46.918 33.2506 46.918 33.2506Z" fill="#5C5A53"/>
<path d="M41.4589 31.8552L42.7089 31.5327C41.1164 26.1777 39.7514 24.0002 39.6414 23.8477L38.5664 24.5452C38.5664 24.5602 39.5664 26.1352 40.8414 29.9052C41.0364 30.4802 41.2514 31.1302 41.4589 31.8552Z" fill="#5C5A53"/>
<path d="M49.1264 27.0164L49.0989 22.3789L47.8164 22.3864L47.8464 27.0064L49.1264 27.0164Z" fill="#5C5A53"/>
<path d="M19.8197 58.6973L19.4297 59.9173C22.6427 60.8768 25.9742 61.3817 29.3272 61.4173C31.244 61.4368 33.1552 61.2056 35.0122 60.7298L34.6797 59.4998C28.0347 61.2773 19.8997 58.7248 19.8197 58.6973Z" fill="#5C5A53"/>
<path d="M40.7188 34.6723C37.9413 29.8323 33.4688 28.7773 33.4688 28.7773C35.7213 32.8723 40.7188 34.6723 40.7188 34.6723Z" fill="#5C5A53"/>
<path d="M46.8789 22.3516C46.2117 23.1933 45.7459 24.1766 45.5171 25.2261C45.2883 26.2755 45.3026 27.3635 45.5589 28.4066C45.5589 28.4066 47.7089 25.3266 46.8789 22.3516Z" fill="#5C5A53"/>
<path d="M35.5778 100.605H32.3878V111.155C32.3919 111.238 32.3632 111.319 32.3079 111.38C32.2526 111.441 32.1753 111.478 32.0928 111.483H31.1928C31.1108 111.478 31.0341 111.44 30.9794 111.379C30.9246 111.318 30.8962 111.237 30.9003 111.155V100.605H27.7103C27.5303 100.605 27.3828 100.523 27.3828 100.355V99.6354C27.388 99.5534 27.4252 99.4767 27.4865 99.4219C27.5478 99.3672 27.6282 99.3388 27.7103 99.3429H35.5778C35.6179 99.3394 35.6583 99.3444 35.6964 99.3576C35.7344 99.3708 35.7692 99.3919 35.7985 99.4195C35.8278 99.4471 35.8509 99.4807 35.8663 99.5179C35.8817 99.5551 35.889 99.5951 35.8878 99.6354V100.355C35.8878 100.5 35.7478 100.605 35.5778 100.605Z" fill="#5C5A53"/>
<path d="M40.3218 111.483H39.4218C39.3398 111.477 39.2631 111.44 39.2083 111.379C39.1536 111.318 39.1252 111.237 39.1293 111.155V99.6401C39.1276 99.6004 39.1339 99.5608 39.1478 99.5235C39.1617 99.4863 39.1829 99.4523 39.2101 99.4234C39.2374 99.3945 39.2702 99.3713 39.3065 99.3553C39.3429 99.3393 39.3821 99.3307 39.4218 99.3301H40.3218C40.3618 99.33 40.4015 99.3381 40.4383 99.3539C40.4751 99.3696 40.5083 99.3927 40.5359 99.4217C40.5635 99.4507 40.5849 99.485 40.5988 99.5226C40.6127 99.5601 40.6188 99.6001 40.6168 99.6401V111.155C40.6209 111.238 40.5921 111.318 40.5369 111.38C40.4816 111.441 40.4043 111.478 40.3218 111.483Z" fill="#5C5A53"/>
<path d="M47.6665 106.641C47.1415 106.641 46.4565 106.594 46.0315 106.559V111.156C46.0356 111.239 46.0068 111.319 45.9516 111.381C45.8963 111.442 45.819 111.479 45.7365 111.484H44.854C44.7715 111.479 44.6942 111.442 44.6389 111.381C44.5836 111.319 44.5549 111.239 44.559 111.156V99.7512C44.5576 99.6984 44.5668 99.646 44.5858 99.5968C44.6048 99.5476 44.6334 99.5026 44.6699 99.4645C44.7064 99.4264 44.75 99.3959 44.7984 99.3747C44.8467 99.3536 44.8987 99.3421 44.9515 99.3412C45.8536 99.2506 46.7598 99.2072 47.6665 99.2112C50.3165 99.2112 52.2465 100.126 52.2465 102.761V102.974C52.249 105.709 50.3165 106.641 47.6665 106.641ZM50.749 102.766C50.749 101.114 49.769 100.476 47.659 100.476C47.159 100.476 46.409 100.509 46.024 100.541V105.334C46.399 105.349 47.234 105.399 47.659 105.399C49.909 105.399 50.749 104.679 50.749 102.979V102.766Z" fill="#5C5A53"/>
<path d="M62.796 111.483H61.831C61.763 111.48 61.6983 111.453 61.6477 111.407C61.5971 111.362 61.5639 111.3 61.5535 111.233L60.4985 107.475H56.2485L55.206 111.25C55.1894 111.318 55.152 111.378 55.099 111.423C55.046 111.468 54.9803 111.495 54.911 111.5H53.9461C53.9114 111.502 53.8766 111.498 53.8438 111.486C53.8111 111.475 53.7809 111.457 53.7551 111.433C53.7293 111.41 53.7083 111.382 53.6935 111.351C53.6786 111.319 53.6701 111.285 53.6685 111.25C53.6661 111.211 53.6712 111.172 53.6835 111.135L56.7111 100.488C56.7952 100.115 57.0093 99.7851 57.3148 99.5561C57.6203 99.327 57.9974 99.2142 58.3785 99.2379C58.7549 99.2128 59.1279 99.3226 59.4307 99.5475C59.7335 99.7724 59.9463 100.098 60.0311 100.465L63.0561 111.128C63.0703 111.164 63.0763 111.204 63.0735 111.243C63.0724 111.277 63.0641 111.311 63.0493 111.342C63.0344 111.373 63.0133 111.401 62.9872 111.424C62.9612 111.446 62.9307 111.463 62.8978 111.473C62.8649 111.483 62.8303 111.487 62.796 111.483ZM58.6886 100.8C58.6411 100.62 58.5435 100.508 58.3785 100.508C58.2135 100.508 58.101 100.62 58.051 100.8L56.5636 106.183H60.1785L58.6886 100.8Z" fill="#5C5A53"/>
<path d="M67.4085 111.483H66.4985C66.416 111.478 66.3387 111.441 66.2834 111.38C66.2282 111.318 66.1994 111.238 66.2035 111.155V99.6401C66.2018 99.6002 66.2082 99.5603 66.2222 99.523C66.2363 99.4856 66.2577 99.4514 66.2852 99.4225C66.3128 99.3936 66.3458 99.3705 66.3825 99.3546C66.4191 99.3387 66.4586 99.3304 66.4985 99.3301H67.3985C67.4384 99.3304 67.4779 99.3387 67.5145 99.3546C67.5512 99.3705 67.5843 99.3936 67.6118 99.4225C67.6393 99.4514 67.6607 99.4856 67.6748 99.523C67.6888 99.5603 67.6952 99.6002 67.6935 99.6401V111.155C67.6977 111.236 67.6703 111.315 67.6172 111.376C67.564 111.437 67.4892 111.476 67.4085 111.483Z" fill="#5C5A53"/>
<path d="M26.5008 119.412V119.942H25.1408V124.442H24.5358V119.942H23.1758V119.412H26.5008Z" fill="#5C5A53"/>
<path d="M28.75 124.447V119.412H29.3575V124.447H28.75Z" fill="#5C5A53"/>
<path d="M32.0494 119.413H33.3719C33.8723 119.386 34.3648 119.547 34.7519 119.866C34.9155 120.012 35.0451 120.192 35.1315 120.394C35.2179 120.596 35.259 120.814 35.2519 121.033C35.2568 121.245 35.2145 121.455 35.128 121.648C35.0415 121.842 34.913 122.013 34.7519 122.151C34.3828 122.46 33.9105 122.619 33.4294 122.596H32.6544V124.448H32.0469L32.0494 119.413ZM32.6569 122.081H33.4319C33.7552 122.099 34.0734 121.993 34.3219 121.786C34.4266 121.691 34.5097 121.575 34.5654 121.446C34.6211 121.317 34.648 121.177 34.6444 121.036C34.6511 120.885 34.6251 120.735 34.5681 120.596C34.5112 120.456 34.4246 120.331 34.3144 120.228C34.0511 120.015 33.7173 119.909 33.3794 119.931H32.6569V122.081Z" fill="#5C5A53"/>
<path d="M38.2222 123.917H40.4272V124.447H37.6172V119.412H40.3897V119.942H38.2222V121.667H40.1347V122.197H38.2222V123.917Z" fill="#5C5A53"/>
<path d="M45.5023 119.598V120.233C45.1762 120.028 44.797 119.925 44.4123 119.935C44.1535 119.921 43.8975 119.996 43.6873 120.148C43.6012 120.212 43.5318 120.297 43.4849 120.394C43.4379 120.491 43.4148 120.597 43.4173 120.705C43.4155 120.816 43.4404 120.926 43.4898 121.025C43.5487 121.134 43.6349 121.225 43.7398 121.29C43.8372 121.359 43.9391 121.422 44.0448 121.478C44.1298 121.52 44.2623 121.58 44.4423 121.66L44.8298 121.838C44.9504 121.896 45.0666 121.963 45.1773 122.038C45.2976 122.111 45.4062 122.202 45.4998 122.308C45.5803 122.412 45.6451 122.527 45.6923 122.65C45.751 122.796 45.7808 122.953 45.7798 123.11C45.7891 123.305 45.7526 123.5 45.6732 123.678C45.5937 123.857 45.4736 124.014 45.3223 124.138C44.9852 124.391 44.5708 124.519 44.1498 124.5C43.6808 124.514 43.2164 124.403 42.8048 124.178V123.528C43.1899 123.809 43.658 123.954 44.1348 123.94C44.4014 123.958 44.6661 123.884 44.8848 123.73C44.9751 123.658 45.0468 123.566 45.0938 123.461C45.1408 123.355 45.1617 123.24 45.1548 123.125C45.1561 123.023 45.1338 122.922 45.0898 122.83C45.0417 122.731 44.9705 122.646 44.8823 122.58C44.7936 122.515 44.7009 122.456 44.6048 122.403C44.5173 122.355 44.3998 122.295 44.2498 122.225L44.1148 122.168C43.9023 122.073 43.7373 121.995 43.6148 121.935C43.4766 121.857 43.3445 121.768 43.2198 121.67C43.0767 121.564 42.9624 121.424 42.8873 121.263C42.8145 121.093 42.7787 120.91 42.7823 120.725C42.7743 120.534 42.8118 120.344 42.8917 120.17C42.9717 119.996 43.0919 119.843 43.2423 119.725C43.574 119.475 43.982 119.347 44.3973 119.363C44.779 119.353 45.1574 119.434 45.5023 119.598Z" fill="#5C5A53"/>
<path d="M51.3092 119.412H51.9142V124.447H51.3092V122.17H48.8667V124.447H48.2617V119.412H48.8667V121.622H51.3092V119.412Z" fill="#5C5A53"/>
<path d="M57.2125 119.5H57.8175L58.3725 121.292L59.1225 123.847C59.3525 122.747 59.5367 121.898 59.675 121.3L60.1025 119.425H60.715L59.535 124.46H58.7575L58.2725 122.87L57.5225 120.35C57.3675 120.936 57.1283 121.776 56.805 122.87L56.335 124.46H55.565L54.25 119.412H54.885L55.355 121.28L55.975 123.812C56.255 122.792 56.4917 121.948 56.685 121.28L57.2125 119.5Z" fill="#5C5A53"/>
<path d="M66.4175 124.447L65.9775 123.125H63.8475L63.4 124.447H62.75L64.5 119.412H65.3375L67.0625 124.447H66.4175ZM64.02 122.61H65.805L65.7075 122.317L64.925 119.897C64.865 120.112 64.5958 120.921 64.1175 122.325L64.02 122.61Z" fill="#5C5A53"/>
<path d="M72.7484 124.448H72.0234L70.7909 122.461H69.9984V124.448H69.3984V119.413H70.6484C71.1259 119.379 71.5987 119.525 71.9734 119.823C72.1266 119.968 72.2465 120.145 72.3246 120.341C72.4027 120.537 72.4373 120.747 72.4259 120.958C72.4255 121.276 72.3297 121.586 72.1509 121.848C71.9659 122.099 71.7017 122.281 71.4009 122.363L72.7484 124.448ZM69.9984 119.948V121.948H70.7609C70.9044 121.958 71.0483 121.938 71.1838 121.89C71.3193 121.842 71.4434 121.766 71.5484 121.668C71.6395 121.572 71.7105 121.458 71.7572 121.334C71.804 121.21 71.8257 121.078 71.8209 120.946C71.8209 120.273 71.4434 119.946 70.6934 119.946L69.9984 119.948Z" fill="#5C5A53"/>
<path d="M33.4992 6.74989C33.2968 6.66693 33.0713 6.65983 32.8642 6.72989C32.6725 6.78459 32.5056 6.90381 32.3917 7.06739C32.3379 7.14723 32.3007 7.23703 32.2822 7.3315C32.2638 7.42597 32.2644 7.52318 32.2842 7.61739C32.2855 7.62567 32.2855 7.63411 32.2842 7.64239C32.2949 7.69763 32.3206 7.74883 32.3586 7.79033C32.3966 7.83183 32.4454 7.86202 32.4994 7.87754C32.5535 7.89307 32.6108 7.89333 32.6651 7.8783C32.7193 7.86327 32.7683 7.83354 32.8067 7.79239C32.8267 7.75982 32.8397 7.72343 32.8449 7.68555C32.85 7.64767 32.8472 7.60913 32.8367 7.57239C32.8261 7.51343 32.8358 7.45263 32.8642 7.39989C32.898 7.34675 32.9507 7.30835 33.0117 7.29239C33.0434 7.27754 33.0781 7.27038 33.1131 7.27148C33.148 7.27258 33.1823 7.28191 33.2129 7.29872C33.2436 7.31552 33.2699 7.33933 33.2897 7.3682C33.3094 7.39707 33.3221 7.4302 33.3267 7.46489L34.6592 11.7874L35.2567 11.6049L33.9242 7.27989C33.8986 7.16493 33.847 7.05737 33.7733 6.96548C33.6996 6.8736 33.6058 6.79984 33.4992 6.74989ZM39.9992 5.13989L36.6567 5.82739C36.4162 5.86012 36.1958 5.97919 36.0367 6.16239C35.9631 6.25255 35.9082 6.35646 35.8751 6.46805C35.8421 6.57964 35.8316 6.69669 35.8442 6.81239C35.8792 7.14739 36.0942 7.36739 36.4042 7.22739C36.4467 7.20305 36.4829 7.16905 36.5098 7.12815C36.5368 7.08725 36.5537 7.04058 36.5593 6.99192C36.5649 6.94326 36.559 6.89397 36.542 6.84802C36.5251 6.80207 36.4975 6.76075 36.4617 6.72739C36.3342 6.59989 36.5867 6.42739 36.7717 6.40989L37.7117 10.9424L38.3242 10.8149L37.8242 8.39989L39.6892 8.01489L39.5692 7.43989L37.7042 7.82489L37.3842 6.26739L40.1142 5.70489L39.9992 5.13989ZM43.6767 9.38989L43.5217 7.49239L45.4192 7.33739L45.3742 6.74989L43.4767 6.90489L43.3467 5.31989L46.1242 5.09239L46.0767 4.51489L42.6842 4.79239C42.4437 4.79455 42.212 4.8833 42.0317 5.04239C41.9618 5.12 41.911 5.21283 41.8832 5.3135C41.8554 5.41417 41.8515 5.51993 41.8717 5.62239C41.8788 5.68982 41.9024 5.75448 41.9403 5.8107C41.9782 5.86692 42.0293 5.91299 42.0892 5.94489C42.2192 5.98989 42.4342 6.04239 42.4842 5.76239C42.5192 5.56989 42.3517 5.66989 42.4042 5.47739C42.4342 5.36239 42.5942 5.38489 42.7242 5.37489L43.1017 9.99739L46.4992 9.74989L46.4542 9.17239L43.6767 9.38989ZM12.1217 19.4224L14.4717 23.2274L14.6867 23.4774L14.4117 23.3074L10.3367 21.4799L9.96417 21.9049L12.3142 25.7124L12.5142 25.9349L12.2642 25.7624L8.94667 24.2749L8.77917 24.1899C8.60721 24.0946 8.40865 24.0586 8.21417 24.0874C8.05019 24.1215 7.90233 24.2095 7.79417 24.3374C7.74479 24.3929 7.70354 24.4552 7.67167 24.5224C7.6014 24.6535 7.57329 24.8031 7.59119 24.9507C7.60909 25.0984 7.67211 25.2369 7.77167 25.3474C7.81718 25.3997 7.88046 25.4332 7.94927 25.4415C8.01808 25.4498 8.08753 25.4323 8.14417 25.3924C8.24417 25.3299 8.33417 25.1124 8.23417 25.0149C8.22272 25.0047 8.21187 24.9938 8.20167 24.9824C8.17462 24.9521 8.15966 24.913 8.15966 24.8724C8.15966 24.8318 8.17462 24.7926 8.20167 24.7624C8.26167 24.6924 8.35667 24.6924 8.48917 24.7624L8.65417 24.8374L12.8242 26.5874L13.1942 26.1624L10.9442 22.4124L14.9992 24.1049L15.3692 23.6799L12.5317 18.9499L12.1217 19.4224ZM52.5717 5.42239C52.5938 5.30498 52.5883 5.18405 52.5558 5.0691C52.5233 4.95414 52.4645 4.8483 52.3842 4.75989C52.2274 4.61071 52.0227 4.52211 51.8067 4.50989C51.6085 4.48663 51.4083 4.53161 51.2392 4.63739C51.1594 4.69004 51.0909 4.75805 51.0377 4.83746C50.9844 4.91687 50.9476 5.00608 50.9292 5.09989C50.9292 5.09989 50.9292 5.11739 50.9292 5.12739C50.9193 5.18248 50.9247 5.23923 50.9449 5.29143C50.9651 5.34364 50.9993 5.38928 51.0437 5.42335C51.0881 5.45743 51.141 5.47864 51.1966 5.48464C51.2523 5.49064 51.3085 5.48121 51.3592 5.45739C51.4171 5.41262 51.4556 5.34727 51.4667 5.27489C51.4805 5.21693 51.513 5.16512 51.5592 5.12739C51.6109 5.09136 51.6743 5.07618 51.7367 5.08489C51.7717 5.08372 51.8066 5.09077 51.8385 5.10548C51.8703 5.12018 51.8983 5.14214 51.9202 5.16959C51.942 5.19704 51.9572 5.22922 51.9644 5.26357C51.9716 5.29791 51.9707 5.33347 51.9617 5.36739L51.5192 9.86739L54.6192 10.1724L54.6767 9.59489L52.1967 9.34489L52.5717 5.42239ZM14.9467 17.0124C14.7272 17.0225 14.5186 17.1112 14.3592 17.2624C14.2074 17.3908 14.1042 17.5672 14.0667 17.7624C14.0364 17.9437 14.0767 18.1298 14.1792 18.2824C14.1874 18.2979 14.1966 18.313 14.2067 18.3274C14.2388 18.3746 14.2835 18.4119 14.3357 18.435C14.3879 18.4581 14.4456 18.466 14.5021 18.458C14.5586 18.4499 14.6118 18.4261 14.6554 18.3893C14.6991 18.3525 14.7316 18.3042 14.7492 18.2499C14.7558 18.2135 14.755 18.1761 14.7468 18.14C14.7387 18.104 14.7233 18.0699 14.7017 18.0399C14.6661 17.9897 14.6493 17.9287 14.6542 17.8674C14.6577 17.836 14.6674 17.8057 14.6829 17.7782C14.6984 17.7507 14.7192 17.7267 14.7442 17.7074C14.7672 17.6814 14.796 17.6611 14.8282 17.6481C14.8604 17.6351 14.8951 17.6297 14.9298 17.6324C14.9644 17.635 14.9979 17.6457 15.0277 17.6635C15.0576 17.6812 15.0829 17.7057 15.1017 17.7349L18.1017 21.1299L18.5692 20.7174L15.5692 17.3224C15.4957 17.2275 15.4013 17.1508 15.2933 17.0983C15.1853 17.0458 15.0667 17.019 14.9467 17.0199V17.0124ZM26.0667 10.9724C25.7093 10.7301 25.2928 10.5893 24.8617 10.5649C24.4145 10.5419 23.9689 10.6331 23.5667 10.8299L21.7842 11.8099L24.3392 16.4124L24.7317 16.2374C25.0517 16.0957 25.2717 15.9907 25.3917 15.9224L25.6242 15.7949L25.9567 15.6099C26.38 15.385 26.7362 15.0521 26.9892 14.6449C27.2268 14.2566 27.3523 13.8101 27.3517 13.3549C27.3471 12.8716 27.217 12.3978 26.9742 11.9799C26.7565 11.5784 26.4452 11.2354 26.0667 10.9799V10.9724ZM26.6767 13.9374C26.5092 14.4374 26.1067 14.8724 25.4667 15.2274C25.2167 15.3649 24.9442 15.5049 24.6292 15.6499L22.6167 12.0199L23.7742 11.3774C24.001 11.2521 24.2512 11.1745 24.5092 11.1496C24.7671 11.1247 25.0275 11.1528 25.2742 11.2324C25.784 11.4287 26.2003 11.8111 26.4392 12.3024C26.594 12.5432 26.6954 12.8145 26.7363 13.0978C26.7773 13.3812 26.757 13.6701 26.6767 13.9449V13.9374ZM20.6542 18.2874L18.3267 15.1049C18.2633 15.0061 18.1785 14.9228 18.0785 14.8614C17.9785 14.7999 17.8659 14.7618 17.7492 14.7499C17.5306 14.7398 17.3155 14.8071 17.1417 14.9399C16.9773 15.0541 16.858 15.2221 16.8042 15.4149C16.7794 15.5132 16.7749 15.6155 16.7908 15.7156C16.8067 15.8157 16.8427 15.9116 16.8967 15.9974C16.9268 16.0453 16.9695 16.0839 17.0201 16.1091C17.0708 16.1342 17.1273 16.1449 17.1837 16.14C17.24 16.1351 17.2939 16.1148 17.3394 16.0812C17.3849 16.0477 17.4203 16.0022 17.4417 15.9499C17.4474 15.9107 17.445 15.8707 17.4347 15.8324C17.4244 15.7942 17.4063 15.7584 17.3817 15.7274C17.3618 15.6809 17.3549 15.63 17.3617 15.5799C17.3758 15.5188 17.4124 15.4653 17.4642 15.4299C17.4893 15.4053 17.5198 15.387 17.5533 15.3765C17.5868 15.366 17.6223 15.3636 17.657 15.3694C17.6916 15.3753 17.7243 15.3893 17.7525 15.4102C17.7807 15.4311 17.8036 15.4584 17.8192 15.4899L20.4992 19.1324L22.9992 17.2949L22.6567 16.8274L20.6542 18.2874ZM30.4542 12.6949L28.9742 9.03739C28.9392 8.9233 28.8784 8.81882 28.7964 8.73209C28.7145 8.64536 28.6136 8.57873 28.5017 8.53739C28.2926 8.47298 28.0674 8.48539 27.8667 8.57239C27.6797 8.64282 27.5232 8.77635 27.4242 8.94989C27.3779 9.03337 27.3488 9.12522 27.3385 9.22009C27.3282 9.31496 27.3369 9.41093 27.3642 9.50239C27.3708 9.56157 27.3948 9.61748 27.4331 9.6631C27.4713 9.70872 27.5222 9.74203 27.5794 9.75885C27.6365 9.77566 27.6973 9.77524 27.7542 9.75764C27.8111 9.74004 27.8615 9.70603 27.8992 9.65989C27.9188 9.62421 27.9302 9.58467 27.9328 9.54406C27.9354 9.50345 27.9291 9.46276 27.9142 9.42489C27.8987 9.36575 27.904 9.30311 27.9292 9.24739C27.9576 9.19196 28.0058 9.14917 28.0642 9.12739C28.0948 9.11019 28.129 9.10032 28.1641 9.09856C28.1992 9.0968 28.2343 9.10319 28.2665 9.11724C28.2987 9.13129 28.3272 9.15261 28.3498 9.17953C28.3724 9.20644 28.3884 9.23823 28.3967 9.27239L30.0917 13.4649L32.9792 12.2974L32.7642 11.7599L30.4542 12.6949ZM65.9542 12.4899C65.9553 12.4957 65.9553 12.5016 65.9542 12.5074V12.4899ZM83.0442 22.3799L83.4567 21.9724L82.1192 20.6199L83.2492 19.4999L85.2067 21.4849L85.6192 21.0774L83.2267 18.6549C83.0694 18.4711 82.8492 18.3526 82.6092 18.3224C82.4093 18.3102 82.2119 18.3716 82.0542 18.4949C82.0104 18.5225 81.9709 18.5561 81.9367 18.5949L81.9142 18.6149C81.8791 18.6554 81.8535 18.7033 81.8392 18.7549C81.7892 18.9824 81.9842 19.2549 82.2267 19.1049C82.3117 19.0549 82.3667 18.9699 82.4592 18.9299C82.4894 18.918 82.5218 18.9129 82.5542 18.9149C82.6526 18.9321 82.7415 18.9846 82.8042 19.0624L79.5042 22.3124L81.9017 24.7399L82.3117 24.3349L80.3542 22.3499L81.7092 21.0124L83.0442 22.3799ZM77.1892 13.8224C77.0786 13.6346 76.9263 13.4746 76.7442 13.3549L75.3142 12.3699C75.1263 12.2177 74.888 12.1419 74.6467 12.1574C74.5361 12.1576 74.4275 12.1862 74.3312 12.2405C74.2348 12.2948 74.1541 12.3729 74.0967 12.4674C74.049 12.5265 74.0164 12.5962 74.0016 12.6707C73.9868 12.7451 73.9903 12.8221 74.0117 12.8949C74.0219 12.9378 74.0416 12.9778 74.0693 13.0121C74.097 13.0464 74.1321 13.074 74.1719 13.093C74.2117 13.1119 74.2553 13.1217 74.2994 13.1216C74.3434 13.1215 74.387 13.1115 74.4267 13.0924C74.6967 12.9524 74.5267 12.7449 74.5992 12.6874C74.6717 12.6299 74.8317 12.7299 74.9717 12.8524L72.3367 16.6699L72.8492 17.0249L74.0242 15.3224C74.2494 15.4949 74.4609 15.6846 74.6567 15.8899C74.7172 16.0019 74.7481 16.1276 74.7467 16.2549C74.7467 16.4024 74.7467 16.5049 74.7467 16.5499L74.7767 18.0499C74.7801 18.1718 74.8109 18.2914 74.8667 18.3999C74.9253 18.5111 75.011 18.6059 75.1159 18.6753C75.2207 18.7448 75.3414 18.7868 75.4667 18.7974C75.5986 18.8114 75.732 18.7916 75.8542 18.7399L75.6567 18.1999C75.63 18.22 75.5981 18.232 75.5648 18.2346C75.5315 18.2372 75.4982 18.2301 75.4687 18.2144C75.4393 18.1986 75.415 18.1747 75.3987 18.1456C75.3824 18.1164 75.3747 18.0832 75.3767 18.0499L75.3592 16.6949L75.3342 16.2899C75.3333 16.1872 75.3039 16.0868 75.2492 15.9999C75.3269 16.0525 75.4109 16.0954 75.4992 16.1274C75.5793 16.1589 75.6635 16.1791 75.7492 16.1874C76.001 16.1994 76.2516 16.146 76.4767 16.0324C76.7052 15.9156 76.9011 15.7437 77.0467 15.5324C77.2256 15.2761 77.3327 14.9766 77.3567 14.6649C77.3897 14.3762 77.332 14.0844 77.1917 13.8299L77.1892 13.8224ZM76.5342 15.1724C76.4661 15.285 76.3758 15.3825 76.2688 15.459C76.1618 15.5356 76.0402 15.5894 75.9117 15.6174C75.7834 15.6384 75.6522 15.6329 75.5262 15.6011C75.4002 15.5692 75.2821 15.5118 75.1792 15.4324L74.3567 14.8399L75.4992 13.1899L76.4017 13.8124C76.5029 13.8791 76.5875 13.9681 76.649 14.0725C76.7105 14.1769 76.7473 14.294 76.7567 14.4149C76.7793 14.6882 76.701 14.9603 76.5367 15.1799L76.5342 15.1724ZM80.7267 16.5099C80.6843 16.295 80.5674 16.102 80.3967 15.9649C80.2461 15.8347 80.0556 15.7597 79.8567 15.7524C79.6723 15.7465 79.4928 15.8129 79.3567 15.9374C79.3417 15.9374 79.3342 15.9599 79.3217 15.9699L79.3042 15.9849C79.2709 16.0265 79.2494 16.0763 79.2419 16.1291C79.2344 16.1818 79.2412 16.2357 79.2617 16.2849C79.2724 16.3247 79.2927 16.3613 79.321 16.3914C79.3493 16.4214 79.3845 16.444 79.4236 16.4571C79.4627 16.4702 79.5045 16.4735 79.5451 16.4665C79.5858 16.4596 79.6241 16.4427 79.6567 16.4174L79.6717 16.4049C79.7149 16.3686 79.768 16.346 79.8242 16.3399C79.8554 16.3387 79.8866 16.3439 79.9158 16.3551C79.945 16.3662 79.9717 16.3832 79.9942 16.4049C80.0238 16.4233 80.0487 16.4485 80.0668 16.4784C80.0849 16.5082 80.0957 16.5419 80.0984 16.5767C80.1011 16.6115 80.0955 16.6464 80.0822 16.6787C80.0689 16.7109 80.0481 16.7396 80.0217 16.7624L77.1317 20.2499L77.6117 20.6499L80.5117 17.1799C80.5965 17.0937 80.6603 16.989 80.698 16.8741C80.7357 16.7592 80.7464 16.6371 80.7292 16.5174L80.7267 16.5099ZM88.3667 24.4274C88.3189 24.2212 88.2258 24.0282 88.0942 23.8624C87.9394 23.6633 87.741 23.5025 87.5142 23.3924C87.3 23.2846 87.061 23.2354 86.8217 23.2499C86.5852 23.2644 86.359 23.3517 86.1742 23.4999C85.9821 23.6432 85.8431 23.8464 85.7792 24.0774C85.7194 24.3057 85.7058 24.5437 85.7392 24.7774C85.7717 25.0274 85.8342 25.3624 85.9292 25.8049C86.0032 26.0647 86.0261 26.3364 85.9967 26.6049C85.9597 26.7992 85.8497 26.9718 85.6892 27.0874C85.5797 27.1804 85.4509 27.248 85.3121 27.2852C85.1733 27.3223 85.028 27.3282 84.8867 27.3024C84.5966 27.2515 84.3371 27.0914 84.1617 26.8549C83.9774 26.6204 83.8731 26.333 83.8642 26.0349C83.8499 25.892 83.8647 25.7476 83.9077 25.6106C83.9506 25.4735 84.0209 25.3466 84.1142 25.2374L83.6142 24.8699C83.4419 25.0774 83.3272 25.3266 83.2817 25.5924C83.2318 25.8709 83.2446 26.157 83.3192 26.4299C83.3961 26.7157 83.5305 26.9828 83.7142 27.2149C83.8994 27.4526 84.1385 27.6428 84.4117 27.7699C84.6778 27.8937 84.972 27.9446 85.2642 27.9174C85.5621 27.8882 85.8447 27.7716 86.0767 27.5824C86.3101 27.4115 86.4757 27.1635 86.5442 26.8824C86.607 26.5228 86.6002 26.1544 86.5242 25.7974L86.4617 25.4974C86.4092 25.2474 86.3742 25.0299 86.3517 24.8574C86.3277 24.6916 86.3277 24.5232 86.3517 24.3574C86.3642 24.2738 86.3943 24.1938 86.44 24.1226C86.4858 24.0515 86.5461 23.9909 86.617 23.9449C86.6879 23.8988 86.7677 23.8683 86.8513 23.8553C86.9348 23.8424 87.0202 23.8474 87.1017 23.8699C87.3093 23.9162 87.4937 24.035 87.6217 24.2049C87.6884 24.2915 87.7385 24.3899 87.7692 24.4949C87.8056 24.5956 87.8176 24.7036 87.8042 24.8099C87.7934 24.8977 87.7539 24.9795 87.6917 25.0424C87.6359 25.0888 87.6 25.1547 87.5912 25.2267C87.5823 25.2987 87.6013 25.3714 87.6442 25.4299C87.6732 25.4608 87.7082 25.4855 87.7471 25.5024C87.786 25.5193 87.828 25.528 87.8704 25.528C87.9128 25.528 87.9548 25.5193 87.9937 25.5024C88.0326 25.4855 88.0677 25.4608 88.0967 25.4299L88.1192 25.4124C88.2381 25.307 88.3211 25.1672 88.3567 25.0124C88.407 24.8237 88.4113 24.6256 88.3692 24.4349L88.3667 24.4274ZM66.4417 7.92739L64.5592 9.35489L64.2492 7.49989C64.2296 7.35932 64.1764 7.22553 64.0942 7.10989C64.019 7.00865 63.9155 6.93206 63.7967 6.88989C63.6712 6.84606 63.5356 6.83998 63.4067 6.87239C63.251 6.89723 63.1083 6.97386 63.0017 7.08989C62.9631 7.13336 62.939 7.18777 62.9327 7.24556C62.9264 7.30334 62.9383 7.36165 62.9667 7.41239C62.997 7.46942 63.0465 7.51396 63.1063 7.53818C63.1662 7.56241 63.2327 7.56478 63.2942 7.54489C63.3207 7.52962 63.3458 7.51205 63.3692 7.49239C63.3955 7.47387 63.4241 7.45875 63.4542 7.44739C63.4823 7.44199 63.5111 7.44199 63.5392 7.44739C63.5698 7.46316 63.5961 7.48624 63.6157 7.51458C63.6354 7.54292 63.6477 7.57565 63.6517 7.60989L64.0492 9.69489L61.5817 11.7499L62.2692 11.9999L64.1717 10.3624L64.4217 12.2149C64.4395 12.3899 64.4913 12.5597 64.5742 12.7149C64.6539 12.8494 64.7802 12.9499 64.9292 12.9974C65.1284 13.0729 65.3495 13.0667 65.5442 12.9799C65.6321 12.9426 65.7114 12.8876 65.7772 12.8183C65.843 12.7491 65.8939 12.6671 65.9267 12.5774L65.4267 12.2899C65.4018 12.3413 65.3639 12.3853 65.3167 12.4174C65.2962 12.4337 65.2719 12.4445 65.2461 12.4489C65.2203 12.4532 65.1939 12.451 65.1692 12.4424C65.1478 12.4356 65.1286 12.4233 65.1137 12.4065C65.0987 12.3898 65.0885 12.3694 65.0842 12.3474L64.6942 9.99989L67.1417 8.17989L66.4417 7.92739ZM65.9417 12.4949C65.9545 12.4588 65.9571 12.4198 65.9492 12.3823C65.9413 12.3448 65.9231 12.3102 65.8967 12.2824C65.8606 12.2392 65.8142 12.2057 65.7617 12.1852C65.7093 12.1647 65.6525 12.1577 65.5967 12.1649C65.5576 12.168 65.5199 12.1803 65.4864 12.2007C65.453 12.2211 65.4248 12.2491 65.4042 12.2824L65.9417 12.4949ZM72.3492 10.6949L70.9142 13.5199C70.7995 13.7516 70.6387 13.9575 70.4417 14.1249C70.2523 14.2892 70.0214 14.3982 69.7742 14.4399C69.5075 14.479 69.2353 14.4299 68.9992 14.2999C68.7636 14.1867 68.5688 14.0033 68.4417 13.7749C68.3217 13.5556 68.2663 13.3069 68.2817 13.0574C68.2943 12.7892 68.366 12.5271 68.4917 12.2899L69.5967 10.1099C69.7088 9.9107 69.7376 9.67522 69.6767 9.45489C69.6065 9.27317 69.4813 9.11791 69.3186 9.01079C69.1559 8.90367 68.9638 8.85004 68.7692 8.85739C68.6473 8.8669 68.53 8.90828 68.4292 8.97739C68.3755 9.00107 68.3304 9.04073 68.3002 9.09096C68.2699 9.14119 68.2558 9.19955 68.2599 9.25807C68.264 9.31658 68.2861 9.37241 68.3231 9.41793C68.3601 9.46344 68.4102 9.49643 68.4667 9.51239C68.5642 9.57239 68.6867 9.41239 68.7817 9.41739C68.8401 9.41542 68.8979 9.42924 68.9492 9.45739C68.983 9.47168 69.0127 9.4943 69.0354 9.52315C69.0581 9.55201 69.0732 9.58615 69.0792 9.62239C69.089 9.69378 69.0758 9.76645 69.0417 9.82989L67.9467 11.9999C67.7781 12.3255 67.6874 12.6858 67.6817 13.0524C67.6732 13.4173 67.7707 13.7768 67.9624 14.0874C68.1541 14.398 68.4317 14.6463 68.7617 14.8024C69.0995 14.9875 69.4866 15.0626 69.8692 15.0174C70.2197 14.9714 70.5504 14.8286 70.8242 14.6049C71.1004 14.385 71.3255 14.1078 71.4842 13.7924L72.9192 10.9674L72.3492 10.6949ZM65.9142 12.5699C65.923 12.5513 65.9305 12.5321 65.9367 12.5124C65.9367 12.5324 65.9192 12.5499 65.9117 12.5699H65.9142ZM59.7542 9.12989C59.6996 9.38257 59.5959 9.62208 59.4492 9.83489C59.3076 10.0421 59.1111 10.2057 58.8817 10.3074C58.6351 10.4022 58.3665 10.4238 58.108 10.3697C57.8494 10.3156 57.612 10.1881 57.4242 10.0024C57.2537 9.8192 57.1369 9.59258 57.0867 9.34739C57.0305 9.08536 57.0305 8.81442 57.0867 8.55239L57.6067 6.16239C57.6648 5.94104 57.6333 5.70572 57.5192 5.50739C57.4566 5.40999 57.3741 5.32691 57.2772 5.26358C57.1802 5.20025 57.071 5.1581 56.9567 5.13989C56.8023 5.10027 56.6396 5.10723 56.4892 5.15989C56.3812 5.19857 56.2842 5.26292 56.2067 5.34739C56.2067 5.34739 56.2067 5.35989 56.1892 5.36739C56.1488 5.40556 56.1206 5.45479 56.1081 5.50891C56.0955 5.56303 56.0992 5.61965 56.1187 5.67167C56.1382 5.7237 56.1726 5.76883 56.2176 5.80141C56.2626 5.834 56.3162 5.8526 56.3717 5.85489C56.4642 5.88489 56.5367 5.75489 56.6217 5.70489C56.6869 5.67885 56.7588 5.67447 56.8267 5.69239C56.8628 5.69748 56.8971 5.71161 56.9264 5.73345C56.9557 5.7553 56.979 5.78417 56.9942 5.81739C57.0206 5.88419 57.0258 5.95751 57.0092 6.02739L56.4992 8.41989C56.4153 8.77754 56.4153 9.14974 56.4992 9.50739C56.5799 9.84985 56.7528 10.1637 56.9992 10.4149C57.2676 10.6799 57.6087 10.8592 57.9792 10.9299C58.3527 11.0225 58.7457 10.9972 59.1042 10.8574C59.4316 10.7255 59.7156 10.5047 59.9242 10.2199C60.1363 9.93663 60.2847 9.61085 60.3592 9.26489L61.0342 6.16989L60.4217 6.03739L59.7542 9.12989Z" fill="#5C5A53"/>
<path d="M75.6055 18.2497C75.6805 18.1972 75.678 18.2022 75.713 18.1922C76.088 18.1297 76.128 18.7072 75.7555 18.7922" fill="#5C5A53"/>
</svg>
