<svg width="96" height="127" viewBox="0 0 96 127" fill="none" xmlns="http://www.w3.org/2000/svg">
<path d="M18.2391 114.258C17.9457 114.261 17.6537 114.217 17.3741 114.128C17.3415 114.111 17.3145 114.085 17.2967 114.053C17.2789 114.021 17.271 113.984 17.2741 113.948V113.343C17.2755 113.302 17.2853 113.263 17.3029 113.226C17.3206 113.19 17.3456 113.158 17.3764 113.132C17.4073 113.105 17.4432 113.086 17.482 113.075C17.5208 113.063 17.5615 113.06 17.6016 113.065H18.2391C19.1066 113.065 19.2866 112.723 19.2866 111.92V99.4877C19.2897 99.4065 19.3233 99.3294 19.3808 99.272C19.4383 99.2145 19.5153 99.1808 19.5966 99.1777H20.4641C20.5453 99.1808 20.6224 99.2145 20.6799 99.272C20.7373 99.3294 20.771 99.4065 20.7741 99.4877V111.93C20.7741 113.488 20.0391 114.258 18.2391 114.258Z" fill="#5C5A53"/>
<path d="M32.7869 111.315H31.9544C31.8675 111.315 31.7842 111.281 31.7228 111.219C31.6614 111.158 31.6269 111.075 31.6269 110.988V105.56H26.0344V110.988C26.0344 111.074 26.0002 111.157 25.9393 111.218C25.8785 111.28 25.7958 111.314 25.7094 111.315H24.8744C24.7875 111.315 24.7042 111.281 24.6428 111.219C24.5814 111.158 24.5469 111.075 24.5469 110.988V99.4877C24.5469 99.4008 24.5814 99.3175 24.6428 99.2561C24.7042 99.1947 24.7875 99.1602 24.8744 99.1602H25.7094C25.7958 99.1608 25.8785 99.1956 25.9393 99.257C26.0002 99.3183 26.0344 99.4012 26.0344 99.4877V104.238H31.6269V99.4877C31.6269 99.4008 31.6614 99.3175 31.7228 99.2561C31.7842 99.1947 31.8675 99.1602 31.9544 99.1602H32.7869C32.8737 99.1602 32.957 99.1947 33.0185 99.2561C33.0799 99.3175 33.1144 99.4008 33.1144 99.4877V110.988C33.1144 111.075 33.0799 111.158 33.0185 111.219C32.957 111.281 32.8737 111.315 32.7869 111.315Z" fill="#5C5A53"/>
<path d="M41.0288 111.43C38.3813 111.43 36.8438 110.025 36.8438 106.903V99.4877C36.8438 99.447 36.8518 99.4067 36.8673 99.3691C36.8829 99.3315 36.9058 99.2973 36.9345 99.2685C36.9633 99.2397 36.9975 99.2169 37.0351 99.2013C37.0727 99.1858 37.113 99.1777 37.1538 99.1777H38.0363C38.0772 99.1774 38.1178 99.1852 38.1557 99.2006C38.1936 99.216 38.228 99.2388 38.2571 99.2676C38.2861 99.2965 38.3092 99.3308 38.3249 99.3685C38.3407 99.4063 38.3488 99.4468 38.3488 99.4877V106.913C38.3488 109.02 39.0013 110.163 41.0288 110.163C43.0563 110.163 43.7113 109.035 43.7113 106.913V99.4877C43.7113 99.447 43.7193 99.4067 43.7349 99.3691C43.7504 99.3315 43.7733 99.2973 43.8021 99.2685C43.8308 99.2397 43.865 99.2169 43.9026 99.2013C43.9402 99.1858 43.9805 99.1777 44.0213 99.1777H44.9113C44.9521 99.1774 44.9925 99.1852 45.0303 99.2007C45.068 99.2161 45.1023 99.2389 45.1312 99.2678C45.1601 99.2967 45.1829 99.331 45.1983 99.3687C45.2138 99.4065 45.2216 99.4469 45.2212 99.4877V106.913C45.2137 110.025 43.6788 111.43 41.0288 111.43Z" fill="#5C5A53"/>
<path d="M55.6114 111.283C54.5527 111.394 53.4884 111.443 52.4239 111.43C50.6739 111.43 48.9414 111.088 48.9414 108.39V99.4877C48.9414 99.4008 48.9759 99.3175 49.0373 99.2561C49.0987 99.1947 49.182 99.1602 49.2689 99.1602H50.1014C50.1883 99.1602 50.2716 99.1947 50.333 99.2561C50.3944 99.3175 50.4289 99.4008 50.4289 99.4877V108.383C50.4289 109.633 50.7064 110.083 52.4414 110.083H55.5964C55.6216 110.082 55.6467 110.086 55.6699 110.096C55.6932 110.106 55.7141 110.12 55.7312 110.139C55.7482 110.157 55.7611 110.179 55.769 110.203C55.7768 110.227 55.7793 110.253 55.7764 110.278V111.048C55.7801 111.1 55.7657 111.152 55.7357 111.194C55.7056 111.237 55.6617 111.268 55.6114 111.283Z" fill="#5C5A53"/>
<path d="M62.0522 111.43C59.4022 111.43 57.8672 110.025 57.8672 106.903V99.4877C57.8672 99.447 57.8752 99.4067 57.8908 99.3691C57.9064 99.3315 57.9292 99.2973 57.958 99.2685C57.9868 99.2397 58.0209 99.2169 58.0586 99.2013C58.0962 99.1857 58.1365 99.1777 58.1772 99.1777H59.0597C59.1004 99.1777 59.1407 99.1857 59.1783 99.2013C59.2159 99.2169 59.2501 99.2397 59.2789 99.2685C59.3077 99.2973 59.3305 99.3315 59.3461 99.3691C59.3617 99.4067 59.3697 99.447 59.3697 99.4877V106.913C59.3697 109.02 60.0247 110.163 62.0522 110.163C64.0797 110.163 64.7322 109.035 64.7322 106.913V99.4877C64.7329 99.4053 64.7661 99.3264 64.8246 99.2684C64.8831 99.2103 64.9622 99.1777 65.0447 99.1777H65.9272C65.9679 99.1777 66.0082 99.1857 66.0458 99.2013C66.0834 99.2169 66.1176 99.2397 66.1464 99.2685C66.1752 99.2973 66.198 99.3315 66.2136 99.3691C66.2292 99.4067 66.2372 99.447 66.2372 99.4877V106.913C66.2372 110.025 64.6997 111.43 62.0522 111.43Z" fill="#5C5A53"/>
<path d="M73.0702 106.488C72.5477 106.488 71.8627 106.438 71.4377 106.405V110.988C71.4401 111.029 71.4343 111.07 71.4207 111.108C71.4071 111.147 71.386 111.183 71.3586 111.213C71.3311 111.244 71.2979 111.268 71.2609 111.286C71.2238 111.303 71.1837 111.313 71.1427 111.315H70.2602C70.1778 111.311 70.1004 111.274 70.0452 111.213C69.9899 111.151 69.9611 111.07 69.9652 110.988V99.5929C69.9642 99.5404 69.9736 99.4881 69.9928 99.4392C70.012 99.3903 70.0406 99.3457 70.0771 99.3078C70.1135 99.27 70.1571 99.2397 70.2052 99.2187C70.2534 99.1977 70.3052 99.1864 70.3577 99.1854C71.259 99.0939 72.1644 99.0497 73.0702 99.0529C75.7202 99.0529 77.6502 99.9704 77.6502 102.603V102.815C77.6602 105.545 75.7202 106.488 73.0702 106.488ZM76.1602 102.603C76.1602 100.95 75.1802 100.313 73.0702 100.313C72.5702 100.313 71.8202 100.345 71.4377 100.378V105.168C71.8127 105.185 72.6452 105.233 73.0702 105.233C75.3202 105.233 76.1602 104.515 76.1602 102.815V102.603Z" fill="#5C5A53"/>
<path d="M34.0434 118.988C34.0422 118.977 34.0433 118.967 34.0467 118.958C34.05 118.948 34.0555 118.939 34.0627 118.932C34.07 118.925 34.0787 118.919 34.0884 118.916C34.098 118.912 34.1083 118.911 34.1184 118.913H34.6334C34.6436 118.911 34.6539 118.912 34.6635 118.916C34.6732 118.919 34.6819 118.925 34.6891 118.932C34.6964 118.939 34.7019 118.948 34.7052 118.958C34.7085 118.967 34.7096 118.977 34.7084 118.988V121.63L36.8659 118.988C36.8787 118.967 36.8965 118.951 36.9175 118.939C36.9385 118.928 36.9621 118.922 36.9859 118.923H37.5984C37.6234 118.923 37.6384 118.923 37.6459 118.948C37.6487 118.959 37.6486 118.971 37.6455 118.982C37.6425 118.994 37.6366 119.004 37.6284 119.013L36.0434 120.915L37.7934 123.915C37.8284 123.97 37.8134 123.998 37.7484 123.998H37.1509C37.1292 123.997 37.1079 123.991 37.0897 123.979C37.0715 123.967 37.0572 123.95 37.0484 123.93L35.6209 121.43L34.7184 122.52V123.925C34.7196 123.935 34.7185 123.946 34.7152 123.955C34.7119 123.965 34.7064 123.974 34.6991 123.981C34.6919 123.988 34.6832 123.993 34.6735 123.997C34.6639 124 34.6536 124.001 34.6434 124H34.1284C34.1183 124.001 34.108 124 34.0984 123.997C34.0887 123.993 34.08 123.988 34.0727 123.981C34.0655 123.974 34.06 123.965 34.0567 123.955C34.0533 123.946 34.0522 123.935 34.0534 123.925L34.0434 118.988Z" fill="#5C5A53"/>
<path d="M41.4491 118.989C41.4527 118.968 41.4637 118.949 41.4802 118.935C41.4967 118.921 41.5176 118.914 41.5391 118.914H42.0241C42.0466 118.913 42.0688 118.92 42.0866 118.934C42.1045 118.948 42.1169 118.967 42.1216 118.989L43.8716 123.917C43.8866 123.967 43.8691 123.992 43.8191 123.992H43.2966C43.2741 123.993 43.2519 123.986 43.2341 123.972C43.2162 123.958 43.2038 123.939 43.1991 123.917L42.8116 122.812H40.7566L40.3691 123.917C40.3631 123.938 40.3504 123.957 40.3329 123.97C40.3153 123.984 40.2938 123.991 40.2716 123.992H39.7491C39.6991 123.992 39.6816 123.967 39.6966 123.917L41.4491 118.989ZM42.5841 122.199L41.7866 119.892H41.7716L40.9641 122.199H42.5841Z" fill="#5C5A53"/>
<path d="M46.1606 118.988C46.1594 118.977 46.1605 118.967 46.1639 118.958C46.1672 118.948 46.1727 118.939 46.1799 118.932C46.1871 118.925 46.1959 118.919 46.2056 118.916C46.2152 118.912 46.2255 118.911 46.2356 118.913H46.7131C46.7395 118.911 46.7658 118.917 46.7886 118.93C46.8114 118.944 46.8295 118.964 46.8406 118.988L49.1406 122.795H49.1706V118.988C49.1694 118.977 49.1705 118.967 49.1739 118.958C49.1772 118.948 49.1827 118.939 49.1899 118.932C49.1971 118.925 49.2059 118.919 49.2156 118.916C49.2252 118.912 49.2355 118.911 49.2456 118.913H49.7156C49.7258 118.911 49.736 118.912 49.7457 118.916C49.7553 118.919 49.7641 118.925 49.7713 118.932C49.7786 118.939 49.784 118.948 49.7874 118.958C49.7907 118.967 49.7918 118.977 49.7906 118.988V123.913C49.7918 123.923 49.7907 123.933 49.7874 123.943C49.784 123.952 49.7786 123.961 49.7713 123.968C49.7641 123.975 49.7553 123.981 49.7457 123.984C49.736 123.988 49.7258 123.989 49.7156 123.988H49.2381C49.2118 123.99 49.1855 123.983 49.1627 123.97C49.1399 123.957 49.1217 123.937 49.1106 123.913L46.8031 120.12H46.7806V123.913C46.7818 123.923 46.7807 123.933 46.7774 123.943C46.774 123.952 46.7685 123.961 46.7613 123.968C46.7541 123.975 46.7453 123.981 46.7357 123.984C46.726 123.988 46.7158 123.989 46.7056 123.988H46.2356C46.2255 123.989 46.2152 123.988 46.2056 123.984C46.1959 123.981 46.1871 123.975 46.1799 123.968C46.1727 123.961 46.1672 123.952 46.1639 123.943C46.1605 123.933 46.1594 123.923 46.1606 123.913V118.988Z" fill="#5C5A53"/>
<path d="M52.5395 118.988C52.5383 118.977 52.5394 118.967 52.5428 118.958C52.5461 118.948 52.5516 118.939 52.5588 118.932C52.5661 118.925 52.5748 118.919 52.5845 118.916C52.5941 118.912 52.6044 118.911 52.6145 118.913H53.1295C53.1397 118.911 53.15 118.912 53.1596 118.916C53.1693 118.919 53.178 118.925 53.1852 118.932C53.1925 118.939 53.198 118.948 53.2013 118.958C53.2046 118.967 53.2057 118.977 53.2045 118.988V121.07C53.2037 121.076 53.2043 121.082 53.2063 121.088C53.2082 121.094 53.2115 121.099 53.2159 121.104C53.2203 121.108 53.2255 121.111 53.2314 121.113C53.2372 121.115 53.2434 121.116 53.2495 121.115H55.452C55.4581 121.116 55.4644 121.115 55.4702 121.113C55.476 121.111 55.4813 121.108 55.4857 121.104C55.49 121.099 55.4933 121.094 55.4953 121.088C55.4973 121.082 55.4979 121.076 55.497 121.07V118.988C55.4958 118.977 55.4969 118.967 55.5003 118.958C55.5036 118.948 55.5091 118.939 55.5163 118.932C55.5236 118.925 55.5323 118.919 55.542 118.916C55.5516 118.912 55.5619 118.911 55.572 118.913H56.087C56.0972 118.911 56.1075 118.912 56.1171 118.916C56.1268 118.919 56.1355 118.925 56.1427 118.932C56.15 118.939 56.1554 118.948 56.1588 118.958C56.1621 118.967 56.1632 118.977 56.162 118.988V123.913C56.1632 123.923 56.1621 123.933 56.1588 123.943C56.1554 123.952 56.15 123.961 56.1427 123.968C56.1355 123.975 56.1268 123.981 56.1171 123.984C56.1075 123.988 56.0972 123.989 56.087 123.988H55.572C55.5619 123.989 55.5516 123.988 55.542 123.984C55.5323 123.981 55.5236 123.975 55.5163 123.968C55.5091 123.961 55.5036 123.952 55.5003 123.943C55.4969 123.933 55.4958 123.923 55.497 123.913V121.778C55.4979 121.771 55.4973 121.765 55.4953 121.759C55.4933 121.754 55.49 121.748 55.4857 121.744C55.4813 121.74 55.476 121.736 55.4702 121.734C55.4644 121.732 55.4581 121.732 55.452 121.733H53.2495C53.2434 121.732 53.2372 121.732 53.2314 121.734C53.2255 121.736 53.2203 121.74 53.2159 121.744C53.2115 121.748 53.2082 121.754 53.2063 121.759C53.2043 121.765 53.2037 121.771 53.2045 121.778V123.913C53.2057 123.923 53.2046 123.933 53.2013 123.943C53.198 123.952 53.1925 123.961 53.1852 123.968C53.178 123.975 53.1693 123.981 53.1596 123.984C53.15 123.988 53.1397 123.989 53.1295 123.988H52.6145C52.6044 123.989 52.5941 123.988 52.5845 123.984C52.5748 123.981 52.5661 123.975 52.5588 123.968C52.5516 123.961 52.5461 123.952 52.5428 123.943C52.5394 123.933 52.5383 123.923 52.5395 123.913V118.988Z" fill="#5C5A53"/>
<path d="M60.2264 118.989C60.23 118.968 60.2411 118.949 60.2576 118.935C60.2741 118.921 60.295 118.914 60.3164 118.914H60.8014C60.8239 118.913 60.8461 118.92 60.864 118.934C60.8818 118.948 60.8942 118.967 60.8989 118.989L62.6489 123.917C62.6639 123.967 62.6464 123.992 62.5964 123.992H62.0739C62.0514 123.993 62.0293 123.986 62.0114 123.972C61.9936 123.958 61.9812 123.939 61.9764 123.917L61.5889 122.812H59.5339L59.1464 123.917C59.1405 123.938 59.1278 123.957 59.1102 123.97C59.0926 123.984 59.0711 123.991 59.0489 123.992H58.5264C58.4764 123.992 58.4589 123.967 58.4739 123.917L60.2264 118.989ZM61.3614 122.199L60.5639 119.892H60.5489L59.7414 122.199H61.3614Z" fill="#5C5A53"/>
<path d="M77.5387 67.7679C77.4053 67.7673 77.2734 67.7392 77.1512 67.6854C77.0349 67.6354 76.9296 67.5628 76.8414 67.4719C76.7532 67.381 76.6839 67.2735 76.6374 67.1557C76.5909 67.0379 76.5682 66.912 76.5706 66.7854C76.573 66.6588 76.6004 66.5339 76.6512 66.4179C78.6599 61.8415 79.5249 56.8452 79.1716 51.86C78.8184 46.8747 77.2576 42.0503 74.6237 37.8029C73.913 36.6615 73.1289 35.5675 72.2762 34.5279C72.1148 34.331 72.0382 34.078 72.0633 33.8246C72.0883 33.5711 72.2131 33.3381 72.41 33.1766C72.6069 33.0152 72.8599 32.9386 73.1133 32.9637C73.3667 32.9887 73.5998 33.1135 73.7612 33.3104C78.5608 39.1477 81.1797 46.4732 81.1687 54.0304C81.1821 58.5619 80.2453 63.0458 78.4187 67.1929C78.3439 67.3639 78.2207 67.5094 78.0644 67.6115C77.9081 67.7137 77.7254 67.768 77.5387 67.7679Z" fill="#5C5A53"/>
<path d="M49.2992 72.1763C45.6367 72.1763 40.6217 72.1763 40.6217 67.1188C40.6119 66.6055 40.7129 66.0962 40.9179 65.6255C41.1228 65.1548 41.4268 64.7338 41.8092 64.3913C44.0592 62.3263 48.8317 62.6188 49.3267 62.6563H58.5767V59.4288C58.5767 57.4288 59.1442 54.0488 62.9492 54.0488C64.8642 54.0488 65.9793 56.0488 66.0243 56.1263L67.8467 59.6438C67.9099 59.7659 67.9405 59.9022 67.9357 60.0396C67.9308 60.177 67.8906 60.3107 67.819 60.4281C67.7474 60.5454 67.6468 60.6423 67.5269 60.7094C67.4069 60.7766 67.2717 60.8117 67.1343 60.8113H63.9117V67.8113C63.9417 68.1463 64.0342 69.8663 62.9717 71.0438C62.3217 71.7663 61.4067 72.1313 60.2492 72.1313H60.1817L49.2992 72.1763ZM48.2593 64.2188C46.6493 64.2188 44.0918 64.4688 42.8918 65.5688C42.6742 65.7629 42.5018 66.0022 42.3865 66.27C42.2712 66.5377 42.2158 66.8274 42.2242 67.1188C42.2242 70.0938 44.3092 70.5763 49.2967 70.5763L60.1892 70.5288H60.2017C60.9317 70.5288 61.4517 70.3563 61.7892 69.9738C62.4542 69.2238 62.3242 67.9563 62.3242 67.9438C62.3218 67.913 62.3218 67.8821 62.3242 67.8513V60.0113C62.3242 59.7992 62.4085 59.5957 62.5586 59.4456C62.7086 59.2956 62.9121 59.2113 63.1242 59.2113H65.8142L64.6067 56.8788C64.6067 56.8788 63.8892 55.6513 62.9442 55.6513C61.6542 55.6513 60.1742 56.0788 60.1742 59.4288V63.4563C60.1736 63.6687 60.0887 63.8722 59.9383 64.0222C59.7879 64.1721 59.5841 64.2563 59.3717 64.2563H49.2317C48.9867 64.2388 48.6618 64.2188 48.2593 64.2188Z" fill="#5C5A53"/>
<path d="M62.9372 55.6514C62.8981 55.6539 62.8588 55.6539 62.8197 55.6514C61.2772 55.4264 58.3922 53.9889 58.5197 50.1639C58.5232 50.0589 58.5473 49.9555 58.5907 49.8598C58.634 49.764 58.6959 49.6778 58.7726 49.6059C58.9275 49.4608 59.1338 49.3832 59.346 49.3902C59.451 49.3936 59.5544 49.4177 59.6501 49.4611C59.7459 49.5045 59.8321 49.5663 59.904 49.6431C59.9758 49.7198 60.0318 49.8099 60.0689 49.9083C60.1059 50.0067 60.1232 50.1114 60.1197 50.2164C60.0197 53.2164 62.3097 53.9114 62.9322 54.0439C63.4631 53.958 63.9599 53.7268 64.3676 53.3761C64.7753 53.0253 65.078 52.5686 65.2422 52.0564C65.4385 51.4819 65.5234 50.8752 65.4922 50.2689C65.4817 50.1644 65.4919 50.0588 65.5222 49.9581C65.5525 49.8575 65.6024 49.7638 65.6689 49.6825C65.7354 49.6011 65.8173 49.5336 65.9098 49.4839C66.0024 49.4342 66.1039 49.4032 66.2085 49.3927C66.4196 49.3715 66.6306 49.435 66.7949 49.5693C66.8763 49.6358 66.9438 49.7177 66.9935 49.8103C67.0432 49.9029 67.0742 50.0044 67.0847 50.1089C67.2547 51.7414 66.6372 54.9989 63.0847 55.6464C63.0359 55.6534 62.9864 55.655 62.9372 55.6514Z" fill="#5C5A53"/>
<path d="M62.8039 55.6509C62.5915 55.6502 62.388 55.5654 62.2381 55.4149C62.0881 55.2645 62.0039 55.0608 62.0039 54.8484V50.1809C62.0039 50.0758 62.0246 49.9718 62.0648 49.8747C62.105 49.7776 62.1639 49.6895 62.2382 49.6152C62.3125 49.5409 62.4007 49.482 62.4978 49.4418C62.5948 49.4016 62.6988 49.3809 62.8039 49.3809C62.909 49.3809 63.013 49.4016 63.1101 49.4418C63.2071 49.482 63.2953 49.5409 63.3696 49.6152C63.4439 49.6895 63.5028 49.7776 63.543 49.8747C63.5832 49.9718 63.6039 50.0758 63.6039 50.1809V54.8484C63.6039 55.0608 63.5197 55.2645 63.3697 55.4149C63.2198 55.5654 63.0163 55.6502 62.8039 55.6509Z" fill="#5C5A53"/>
<path d="M60.843 78.7908C60.6308 78.7908 60.4273 78.7065 60.2773 78.5565C60.1273 78.4064 60.043 78.203 60.043 77.9908V71.2883C60.043 71.0761 60.1273 70.8726 60.2773 70.7226C60.4273 70.5726 60.6308 70.4883 60.843 70.4883C61.0551 70.4883 61.2586 70.5726 61.4087 70.7226C61.5587 70.8726 61.643 71.0761 61.643 71.2883V77.9883C61.6433 78.0935 61.6228 78.1978 61.5828 78.2952C61.5427 78.3925 61.4839 78.481 61.4095 78.5556C61.3352 78.6301 61.2469 78.6893 61.1497 78.7296C61.0525 78.77 60.9482 78.7908 60.843 78.7908Z" fill="#5C5A53"/>
<path d="M58.3611 79.9056C58.1487 79.9056 57.945 79.8214 57.7945 79.6714C57.6441 79.5215 57.5593 79.318 57.5586 79.1056V71.4706C57.57 71.2658 57.6594 71.0732 57.8084 70.9323C57.9575 70.7914 58.1548 70.7129 58.3598 70.7129C58.5649 70.7129 58.7622 70.7914 58.9112 70.9323C59.0602 71.0732 59.1497 71.2658 59.1611 71.4706V79.1056C59.1611 79.3178 59.0768 79.5213 58.9268 79.6713C58.7768 79.8213 58.5733 79.9056 58.3611 79.9056Z" fill="#5C5A53"/>
<path d="M46.425 81.4883C46.2128 81.4883 46.0094 81.404 45.8593 81.254C45.7093 81.1039 45.625 80.9005 45.625 80.6883V71.2883C45.625 71.1832 45.6457 71.0792 45.6859 70.9821C45.7261 70.8851 45.785 70.7969 45.8593 70.7226C45.9336 70.6483 46.0218 70.5894 46.1189 70.5492C46.2159 70.509 46.3199 70.4883 46.425 70.4883C46.5301 70.4883 46.6341 70.509 46.7311 70.5492C46.8282 70.5894 46.9164 70.6483 46.9907 70.7226C47.065 70.7969 47.1239 70.8851 47.1641 70.9821C47.2043 71.0792 47.225 71.1832 47.225 71.2883V80.6758C47.2267 80.7819 47.2072 80.8873 47.1677 80.9858C47.1283 81.0843 47.0696 81.1739 46.9952 81.2496C46.9207 81.3252 46.8319 81.3852 46.7341 81.4262C46.6362 81.4672 46.5311 81.4883 46.425 81.4883Z" fill="#5C5A53"/>
<path d="M43.9405 81.2687C43.7281 81.2687 43.5243 81.1845 43.3739 81.0345C43.2235 80.8846 43.1386 80.6811 43.138 80.4687V71.2887C43.1319 71.1797 43.1481 71.0706 43.1856 70.9681C43.2231 70.8656 43.2811 70.7718 43.3561 70.6925C43.4311 70.6132 43.5215 70.55 43.6218 70.5069C43.722 70.4637 43.8301 70.4414 43.9392 70.4414C44.0484 70.4414 44.1564 70.4637 44.2566 70.5069C44.3569 70.55 44.4473 70.6132 44.5223 70.6925C44.5973 70.7718 44.6553 70.8656 44.6928 70.9681C44.7303 71.0706 44.7466 71.1797 44.7405 71.2887V80.4687C44.7405 80.5737 44.7198 80.6778 44.6796 80.7748C44.6394 80.8719 44.5804 80.9601 44.5062 81.0344C44.4319 81.1086 44.3437 81.1676 44.2466 81.2078C44.1496 81.248 44.0455 81.2687 43.9405 81.2687Z" fill="#5C5A53"/>
<path d="M38.5812 72.0889C38.3691 72.0889 38.1656 72.0046 38.0156 71.8546C37.8655 71.7046 37.7812 71.5011 37.7812 71.2889C37.7812 66.1989 41.4137 64.9064 41.5687 64.8539C41.7696 64.785 41.9897 64.7986 42.1805 64.8919C42.3714 64.9852 42.5173 65.1505 42.5862 65.3514C42.6552 65.5523 42.6415 65.7724 42.5482 65.9632C42.4549 66.154 42.2897 66.3 42.0887 66.3689C41.9687 66.4114 39.3812 67.3914 39.3812 71.2889C39.3812 71.5011 39.297 71.7046 39.1469 71.8546C38.9969 72.0046 38.7934 72.0889 38.5812 72.0889Z" fill="#5C5A53"/>
<path d="M48.4806 86.8068C42.6374 86.8046 36.9012 85.2391 31.867 82.2728C26.8328 79.3064 22.6839 75.0472 19.8506 69.9368C19.7895 69.8265 19.7508 69.7053 19.7366 69.58C19.7224 69.4547 19.733 69.3279 19.7678 69.2067C19.8026 69.0855 19.861 68.9724 19.9395 68.8737C20.0181 68.7751 20.1153 68.6929 20.2256 68.6318C20.3359 68.5708 20.4572 68.532 20.5824 68.5178C20.7077 68.5036 20.8346 68.5142 20.9557 68.5491C21.0769 68.5839 21.1901 68.6422 21.2887 68.7208C21.3873 68.7993 21.4695 68.8965 21.5306 69.0068C25.1109 75.4657 30.8909 80.4247 37.8189 82.9817C44.7469 85.5386 52.3627 85.5236 59.2806 82.9393C59.3988 82.895 59.5245 82.8744 59.6507 82.8787C59.7768 82.883 59.9009 82.9121 60.0158 82.9643C60.1307 83.0165 60.2342 83.0909 60.3204 83.1831C60.4066 83.2753 60.4738 83.3836 60.5181 83.5018C60.5624 83.62 60.583 83.7458 60.5787 83.8719C60.5744 83.9981 60.5454 84.1222 60.4931 84.2371C60.4409 84.352 60.3665 84.4555 60.2743 84.5417C60.1821 84.6278 60.0738 84.695 59.9556 84.7393C56.2859 86.1126 52.3988 86.813 48.4806 86.8068Z" fill="#5C5A53"/>
<path d="M48.4315 81.8329C42.6692 81.8224 37.0487 80.0451 32.3281 76.7407C27.6074 73.4362 24.0137 68.7635 22.0315 63.3529C21.719 62.6904 17.929 54.2554 21.4115 43.8354C21.4359 43.7529 21.4767 43.6762 21.5314 43.6098C21.5862 43.5434 21.6537 43.4888 21.73 43.4491C21.8063 43.4094 21.8899 43.3855 21.9756 43.3789C22.0614 43.3722 22.1476 43.3829 22.2291 43.4103C22.3107 43.4377 22.3858 43.4813 22.4502 43.5384C22.5145 43.5955 22.5666 43.665 22.6035 43.7427C22.6404 43.8204 22.6612 43.9047 22.6647 43.9907C22.6682 44.0766 22.6544 44.1624 22.624 44.2429C19.2465 54.3579 23.1615 62.7429 23.2015 62.8304L23.224 62.8879C25.1125 68.0584 28.5423 72.5249 33.0502 75.684C37.5581 78.843 42.9269 80.5425 48.4315 80.5529C52.6467 80.5655 56.8041 79.573 60.559 77.6579C60.7106 77.581 60.8864 77.5674 61.0479 77.6201C61.2094 77.6729 61.3434 77.7876 61.4203 77.9391C61.4972 78.0906 61.5108 78.2665 61.458 78.428C61.4053 78.5895 61.2906 78.7235 61.139 78.8004C57.2044 80.8067 52.8482 81.8463 48.4315 81.8329Z" fill="#5C5A53"/>
<path d="M47.3655 69.6893C46.6455 69.6893 45.843 69.6893 45.153 69.4393C44.7152 69.306 44.335 69.0295 44.0733 68.654C43.8117 68.2786 43.6839 67.8261 43.7105 67.3693C43.7073 67.1225 43.757 66.878 43.8562 66.6521C43.9554 66.4261 44.1018 66.224 44.2855 66.0593C45.2555 65.1793 47.173 65.2968 47.513 65.3268H57.7455C57.9152 65.3268 58.078 65.3942 58.198 65.5142C58.318 65.6343 58.3855 65.797 58.3855 65.9668C58.3855 66.1365 58.318 66.2993 58.198 66.4193C58.078 66.5393 57.9152 66.6068 57.7455 66.6068H47.4255C46.8805 66.5568 45.6105 66.5893 45.148 67.0118C45.0961 67.0557 45.0551 67.1111 45.0282 67.1736C45.0013 67.236 44.9892 67.3039 44.993 67.3718C44.9682 67.5626 45.0143 67.7558 45.1227 67.9148C45.231 68.0738 45.3939 68.1875 45.5805 68.2343C46.063 68.4068 46.7505 68.4068 47.3555 68.4068H57.7455C57.9152 68.4068 58.078 68.4742 58.198 68.5942C58.318 68.7143 58.3855 68.877 58.3855 69.0468C58.3855 69.2165 58.318 69.3793 58.198 69.4993C58.078 69.6194 57.9152 69.6868 57.7455 69.6868H47.3655V69.6893Z" fill="#5C5A53"/>
<path d="M75.8013 71.2197C76.3646 71.2197 76.8213 70.763 76.8213 70.1997C76.8213 69.6364 76.3646 69.1797 75.8013 69.1797C75.2379 69.1797 74.7812 69.6364 74.7812 70.1997C74.7812 70.763 75.2379 71.2197 75.8013 71.2197Z" fill="#5C5A53"/>
<path d="M53.2192 26.6533C53.7825 26.6533 54.2392 26.1966 54.2392 25.6333C54.2392 25.07 53.7825 24.6133 53.2192 24.6133C52.6559 24.6133 52.1992 25.07 52.1992 25.6333C52.1992 26.1966 52.6559 26.6533 53.2192 26.6533Z" fill="#5C5A53"/>
<path d="M39.727 46.7138C40.2904 46.7138 40.747 46.2572 40.747 45.6938C40.747 45.1305 40.2904 44.6738 39.727 44.6738C39.1637 44.6738 38.707 45.1305 38.707 45.6938C38.707 46.2572 39.1637 46.7138 39.727 46.7138Z" fill="#5C5A53"/>
<path d="M22.7583 38.54C23.3216 38.54 23.7783 38.0833 23.7783 37.52C23.7783 36.9567 23.3216 36.5 22.7583 36.5C22.195 36.5 21.7383 36.9567 21.7383 37.52C21.7383 38.0833 22.195 38.54 22.7583 38.54Z" fill="#5C5A53"/>
<path d="M75.4095 54.9044C75.2398 54.9044 75.077 54.8369 74.957 54.7169C74.837 54.5969 74.7695 54.4341 74.7695 54.2644C74.7759 49.0407 73.2398 43.9314 70.3539 39.5774C67.4679 35.2233 63.3606 31.8183 58.547 29.7894C58.3905 29.7231 58.2668 29.5973 58.2031 29.4398C58.1393 29.2823 58.1407 29.1059 58.207 28.9494C58.2733 28.7929 58.3991 28.6692 58.5566 28.6054C58.7141 28.5416 58.8905 28.5431 59.047 28.6094C64.0917 30.7369 68.396 34.3064 71.4202 38.8704C74.4444 43.4343 76.054 48.7894 76.047 54.2644C76.047 54.4337 75.9799 54.5961 75.8605 54.716C75.741 54.836 75.5788 54.9037 75.4095 54.9044Z" fill="#5C5A53"/>
<path d="M39.9083 33.6958C39.9088 33.8981 39.8492 34.0961 39.7372 34.2645C39.6251 34.433 39.4656 34.5645 39.2788 34.6422C39.092 34.72 38.8863 34.7406 38.6878 34.7014C38.4893 34.6623 38.3069 34.5651 38.1636 34.4222C38.0204 34.2793 37.9228 34.0971 37.8831 33.8987C37.8435 33.7003 37.8636 33.4946 37.9409 33.3076C38.0182 33.1206 38.1492 32.9607 38.3175 32.8483C38.4857 32.7358 38.6834 32.6758 38.8858 32.6758C39.1565 32.6758 39.4162 32.7832 39.6079 32.9744C39.7996 33.1656 39.9076 33.425 39.9083 33.6958Z" fill="#5C5A53"/>
<path d="M38.91 39.8176C37.7053 39.8196 36.527 39.464 35.5245 38.796C34.5219 38.128 33.7401 37.1775 33.278 36.0649C32.816 34.9523 32.6944 33.7276 32.9288 32.5458C33.1632 31.3641 33.7429 30.2785 34.5946 29.4265C35.4463 28.5744 36.5317 27.9942 37.7133 27.7594C38.8949 27.5245 40.1197 27.6456 41.2325 28.1072C42.3453 28.5688 43.2961 29.3502 43.9645 30.3525C44.633 31.3547 44.989 32.5328 44.9875 33.7376C44.9842 35.3486 44.3429 36.8928 43.2039 38.0322C42.065 39.1717 40.5211 39.8136 38.91 39.8176ZM38.91 28.9251C37.9589 28.9226 37.0283 29.2023 36.2362 29.7289C35.4441 30.2554 34.826 31.005 34.46 31.883C34.0941 32.7609 33.9968 33.7277 34.1805 34.6609C34.3642 35.5942 34.8206 36.452 35.4919 37.1258C36.1632 37.7996 37.0194 38.2591 37.9519 38.4462C38.8845 38.6332 39.8516 38.5395 40.7309 38.1767C41.6102 37.814 42.3621 37.1986 42.8915 36.4084C43.4209 35.6182 43.704 34.6887 43.705 33.7376C43.7057 32.464 43.2013 31.2422 42.3024 30.3401C41.4035 29.4379 40.1835 28.929 38.91 28.9251Z" fill="#5C5A53"/>
<path d="M38.9102 37.4727C38.1685 37.4727 37.4435 37.2527 36.8268 36.8407C36.2101 36.4286 35.7294 35.8429 35.4456 35.1577C35.1618 34.4725 35.0875 33.7185 35.2322 32.9911C35.3769 32.2636 35.7341 31.5955 36.2585 31.071C36.783 30.5466 37.4511 30.1894 38.1786 30.0447C38.906 29.9 39.66 29.9743 40.3452 30.2581C41.0304 30.5419 41.6161 31.0226 42.0282 31.6393C42.4402 32.256 42.6602 32.981 42.6602 33.7227C42.6602 34.7172 42.2651 35.671 41.5618 36.3743C40.8585 37.0776 39.9047 37.4727 38.9102 37.4727ZM38.9102 31.2702C38.423 31.2702 37.9468 31.4146 37.5418 31.6853C37.1368 31.956 36.8212 32.3408 36.6349 32.7909C36.4486 33.241 36.3999 33.7362 36.4952 34.214C36.5904 34.6917 36.8252 35.1305 37.1698 35.4748C37.5144 35.8191 37.9534 36.0534 38.4313 36.1481C38.9091 36.2429 39.4043 36.1938 39.8542 36.007C40.3042 35.8202 40.6886 35.5042 40.9589 35.0989C41.2292 34.6936 41.3732 34.2173 41.3727 33.7302C41.372 33.0775 41.1123 32.4518 40.6505 31.9905C40.1888 31.5293 39.5628 31.2702 38.9102 31.2702Z" fill="#5C5A53"/>
<path d="M34.4935 30.72H28.161C27.9979 30.7098 27.8448 30.6378 27.7328 30.5187C27.6209 30.3995 27.5586 30.2422 27.5586 30.0788C27.5586 29.9153 27.6209 29.758 27.7328 29.6388C27.8448 29.5197 27.9979 29.4477 28.161 29.4375H34.4835C34.6467 29.4477 34.7998 29.5197 34.9117 29.6388C35.0237 29.758 35.086 29.9153 35.086 30.0788C35.086 30.2422 35.0237 30.3995 34.9117 30.5187C34.7998 30.6378 34.6467 30.7098 34.4835 30.72H34.4935Z" fill="#5C5A53"/>
<path d="M33.4748 34.3384H27.9423C27.7791 34.3282 27.626 34.2562 27.5141 34.1371C27.4022 34.018 27.3398 33.8607 27.3398 33.6972C27.3398 33.5337 27.4022 33.3764 27.5141 33.2573C27.626 33.1381 27.7791 33.0661 27.9423 33.0559H33.4748C33.5624 33.0505 33.6501 33.063 33.7327 33.0927C33.8152 33.1225 33.8908 33.1688 33.9548 33.2289C34.0187 33.289 34.0697 33.3615 34.1045 33.4421C34.1394 33.5226 34.1573 33.6094 34.1573 33.6972C34.1573 33.7849 34.1394 33.8718 34.1045 33.9523C34.0697 34.0328 34.0187 34.1054 33.9548 34.1654C33.8908 34.2255 33.8152 34.2719 33.7327 34.3016C33.6501 34.3314 33.5624 34.3439 33.4748 34.3384Z" fill="#5C5A53"/>
<path d="M34.492 38.1237H28.1595C27.9898 38.1237 27.827 38.0563 27.707 37.9363C27.587 37.8163 27.5195 37.6535 27.5195 37.4837C27.5195 37.314 27.587 37.1512 27.707 37.0312C27.827 36.9112 27.9898 36.8438 28.1595 36.8438H34.482C34.6518 36.8438 34.8146 36.9112 34.9346 37.0312C35.0546 37.1512 35.122 37.314 35.122 37.4837C35.122 37.6535 35.0546 37.8163 34.9346 37.9363C34.8146 38.0563 34.6518 38.1237 34.482 38.1237H34.492Z" fill="#5C5A53"/>
<path d="M49.9967 30.72H43.6767C43.5135 30.7098 43.3604 30.6378 43.2485 30.5187C43.1365 30.3995 43.0742 30.2422 43.0742 30.0788C43.0742 29.9153 43.1365 29.758 43.2485 29.6388C43.3604 29.5197 43.5135 29.4477 43.6767 29.4375H49.9967C50.1598 29.4477 50.3129 29.5197 50.4249 29.6388C50.5368 29.758 50.5991 29.9153 50.5991 30.0788C50.5991 30.2422 50.5368 30.3995 50.4249 30.5187C50.3129 30.6378 50.1598 30.7098 49.9967 30.72Z" fill="#5C5A53"/>
<path d="M49.9117 34.3372H44.3642C44.201 34.327 44.0479 34.255 43.936 34.1359C43.824 34.0167 43.7617 33.8594 43.7617 33.6959C43.7617 33.5325 43.824 33.3751 43.936 33.256C44.0479 33.1369 44.201 33.0649 44.3642 33.0547H49.9117C50.0748 33.0649 50.2279 33.1369 50.3399 33.256C50.4518 33.3751 50.5141 33.5325 50.5141 33.6959C50.5141 33.8594 50.4518 34.0167 50.3399 34.1359C50.2279 34.255 50.0748 34.327 49.9117 34.3372Z" fill="#5C5A53"/>
<path d="M49.9991 38.1237H43.6791C43.5093 38.1237 43.3465 38.0563 43.2265 37.9363C43.1065 37.8163 43.0391 37.6535 43.0391 37.4837C43.0391 37.314 43.1065 37.1512 43.2265 37.0312C43.3465 36.9112 43.5093 36.8438 43.6791 36.8438H49.9991C50.1688 36.8438 50.3316 36.9112 50.4516 37.0312C50.5716 37.1512 50.6391 37.314 50.6391 37.4837C50.6391 37.6535 50.5716 37.8163 50.4516 37.9363C50.3316 38.0563 50.1688 38.1237 49.9991 38.1237Z" fill="#5C5A53"/>
<path d="M61.7577 36.3853C61.624 36.3822 61.4945 36.3374 61.3873 36.2572C61.2802 36.177 61.2008 36.0653 61.1602 35.9378L59.1602 29.6728C59.1307 29.5823 59.1219 29.4864 59.1345 29.392C59.147 29.2977 59.1806 29.2074 59.2327 29.1278C59.285 29.0481 59.3542 28.981 59.4355 28.9313C59.5168 28.8816 59.608 28.8505 59.7027 28.8403L66.1102 28.1628C66.1943 28.1527 66.2796 28.1593 66.3611 28.1824C66.4426 28.2055 66.5187 28.2445 66.585 28.2972C66.6513 28.35 66.7064 28.4153 66.7473 28.4895C66.7881 28.5637 66.8139 28.6452 66.823 28.7295C66.832 28.8137 66.8243 28.8988 66.8003 28.98C66.7762 29.0612 66.7363 29.1369 66.6828 29.2025C66.6293 29.2682 66.5633 29.3225 66.4886 29.3625C66.4139 29.4025 66.3321 29.4272 66.2477 29.4353L60.6177 30.0328L62.3677 35.5503C62.3934 35.6304 62.403 35.7148 62.3961 35.7986C62.3891 35.8824 62.3657 35.964 62.3271 36.0388C62.2886 36.1136 62.2357 36.18 62.1714 36.2343C62.1072 36.2886 62.0329 36.3297 61.9527 36.3553C61.8896 36.375 61.8239 36.3851 61.7577 36.3853Z" fill="#5C5A53"/>
<path d="M65.467 38.8225C65.3265 38.8225 65.1899 38.7762 65.0783 38.6908C64.9666 38.6054 64.8863 38.4857 64.8495 38.35L63.132 32.0025C63.1069 31.9106 63.1026 31.8143 63.1195 31.7205C63.1364 31.6268 63.174 31.538 63.2296 31.4606C63.2851 31.3832 63.3573 31.3192 63.4408 31.2733C63.5242 31.2273 63.6169 31.2006 63.712 31.195L70.1445 30.7975C70.3123 30.7899 70.4765 30.8487 70.6014 30.961C70.7263 31.0734 70.8021 31.2304 70.8122 31.3981C70.8224 31.5658 70.7662 31.7308 70.6558 31.8575C70.5453 31.9841 70.3895 32.0623 70.222 32.075L64.5745 32.425L66.0745 38.015C66.0997 38.1101 66.1028 38.2097 66.0835 38.3061C66.0642 38.4026 66.023 38.4933 65.9631 38.5713C65.9032 38.6493 65.8262 38.7125 65.738 38.7561C65.6499 38.7997 65.5528 38.8224 65.4545 38.8225H65.467Z" fill="#5C5A53"/>
<path d="M56.615 31.0685C55.6628 31.0539 54.7369 30.7534 53.9575 30.206C53.8196 30.1065 53.7269 29.9563 53.6997 29.7885C53.6725 29.6207 53.7131 29.4489 53.8125 29.311C53.912 29.1731 54.0621 29.0803 54.23 29.0531C54.3978 29.0259 54.5696 29.0665 54.7075 29.166C55.1343 29.4438 55.6104 29.6373 56.11 29.736C56.5556 29.8313 57.0189 29.8012 57.4483 29.6489C57.8778 29.4966 58.2566 29.2282 58.5425 28.8735C58.7025 28.3735 59.1725 26.401 56.9225 25.211C56.8482 25.1716 56.7823 25.1179 56.7287 25.0531C56.675 24.9882 56.6347 24.9134 56.61 24.833C56.5853 24.7525 56.5766 24.668 56.5846 24.5842C56.5925 24.5005 56.6169 24.4191 56.6563 24.3447C56.6957 24.2704 56.7493 24.2045 56.8142 24.1509C56.879 24.0972 56.9538 24.0569 57.0343 24.0322C57.1147 24.0075 57.1992 23.9988 57.283 24.0068C57.3668 24.0147 57.4482 24.0391 57.5225 24.0785C60.3275 25.5635 60.175 28.231 59.7025 29.436C59.6765 29.5013 59.6402 29.5621 59.595 29.616C59.2408 30.068 58.7885 30.4337 58.2723 30.6853C57.756 30.937 57.1893 31.068 56.615 31.0685Z" fill="#5C5A53"/>
<path d="M59.1594 29.7378C59.0479 29.7377 58.9385 29.7083 58.8419 29.6528L55.4519 27.7378C55.3044 27.6535 55.1963 27.5142 55.1516 27.3503C55.1068 27.1865 55.1289 27.0115 55.2131 26.864C55.2973 26.7165 55.4367 26.6084 55.6006 26.5637C55.7644 26.5189 55.9394 26.541 56.0869 26.6253L59.4719 28.5628C59.5848 28.6364 59.6715 28.7437 59.7198 28.8695C59.7681 28.9953 59.7754 29.1331 59.7408 29.2633C59.7062 29.3935 59.6313 29.5095 59.5269 29.5947C59.4225 29.6799 59.2939 29.7299 59.1594 29.7378Z" fill="#5C5A53"/>
<path d="M36.9094 59.0055C36.7592 59.0055 36.6137 58.9527 36.4986 58.8562C36.3834 58.7598 36.3058 58.6259 36.2794 58.478L35.2794 52.908L29.9094 55.053C29.8313 55.0842 29.7477 55.0997 29.6636 55.0986C29.5795 55.0975 29.4964 55.0799 29.4191 55.0467C29.3418 55.0135 29.2718 54.9654 29.2131 54.9051C29.1544 54.8449 29.1081 54.7737 29.0769 54.6955C29.0457 54.6174 29.0302 54.5339 29.0313 54.4497C29.0324 54.3656 29.05 54.2825 29.0832 54.2052C29.1164 54.1279 29.1645 54.0579 29.2248 53.9992C29.285 53.9405 29.3563 53.8942 29.4344 53.863L35.5419 51.4255C35.6302 51.3906 35.7252 51.3759 35.8199 51.3823C35.9146 51.3888 36.0067 51.4164 36.0894 51.463C36.1728 51.5083 36.2449 51.5718 36.3003 51.6489C36.3557 51.726 36.393 51.8145 36.4094 51.908L37.5444 58.253C37.5606 58.3363 37.56 58.422 37.5427 58.5051C37.5253 58.5882 37.4916 58.667 37.4434 58.7368C37.3952 58.8067 37.3335 58.8662 37.262 58.9119C37.1905 58.9576 37.1105 58.9886 37.0269 59.003C36.9879 59.0079 36.9485 59.0087 36.9094 59.0055Z" fill="#5C5A53"/>
<path d="M34.9286 63.2558C34.7784 63.2558 34.633 63.2029 34.5178 63.1065C34.4026 63.01 34.325 62.8762 34.2986 62.7283L33.2986 57.1583L27.9211 59.3033C27.843 59.3345 27.7595 59.35 27.6753 59.3489C27.5912 59.3478 27.5081 59.3302 27.4308 59.297C27.3535 59.2638 27.2835 59.2157 27.2248 59.1554C27.1661 59.0952 27.1198 59.0239 27.0886 58.9458C27.0574 58.8676 27.0419 58.7841 27.043 58.7C27.0441 58.6159 27.0618 58.5328 27.095 58.4555C27.1281 58.3782 27.1762 58.3082 27.2365 58.2495C27.2968 58.1907 27.368 58.1445 27.4461 58.1133L33.5536 55.6758C33.6418 55.641 33.7366 55.6261 33.8313 55.6322C33.9259 55.6382 34.018 55.6651 34.1011 55.7108C34.1846 55.7566 34.2567 55.8206 34.3121 55.8981C34.3675 55.9755 34.4047 56.0645 34.4211 56.1583L35.5561 62.5033C35.572 62.5866 35.5711 62.6722 35.5536 62.7551C35.5361 62.8381 35.5023 62.9167 35.4542 62.9865C35.406 63.0563 35.3445 63.1158 35.2732 63.1616C35.2018 63.2074 35.1221 63.2386 35.0386 63.2533C35.0021 63.2577 34.9653 63.2585 34.9286 63.2558Z" fill="#5C5A53"/>
<path d="M37.5777 52.4292C36.9838 52.4314 36.3958 52.3114 35.8502 52.0767C35.7857 52.0476 35.7266 52.0078 35.6752 51.9592C33.4927 49.9192 34.5227 47.3692 35.3727 46.3042C35.4808 46.1788 35.6332 46.1002 35.798 46.0848C35.9628 46.0694 36.1271 46.1185 36.2565 46.2217C36.3859 46.3249 36.4703 46.4742 36.492 46.6382C36.5136 46.8023 36.4709 46.9684 36.3727 47.1017C36.0718 47.5133 35.8536 47.9794 35.7302 48.4742C35.6124 48.9142 35.619 49.3782 35.7492 49.8147C35.8794 50.2512 36.1281 50.6431 36.4677 50.9467C36.9552 51.1317 38.9052 51.6967 40.2177 49.5167C40.2607 49.4444 40.3175 49.3814 40.3849 49.3311C40.4523 49.2808 40.5289 49.2443 40.6104 49.2237C40.6919 49.203 40.7766 49.1986 40.8598 49.2107C40.943 49.2228 41.023 49.2512 41.0952 49.2942C41.1675 49.3372 41.2305 49.394 41.2808 49.4614C41.331 49.5287 41.3676 49.6053 41.3882 49.6868C41.4089 49.7683 41.4133 49.8531 41.4012 49.9363C41.3891 50.0194 41.3607 50.0994 41.3177 50.1717C40.2702 51.9192 38.8052 52.4292 37.5777 52.4292Z" fill="#5C5A53"/>
<path d="M36.2087 52.1929C36.0864 52.1917 35.9668 52.1562 35.8637 52.0904C35.7212 51.9982 35.6211 51.8534 35.585 51.6876C35.5489 51.5218 35.5799 51.3484 35.6712 51.2054L37.7787 47.9254C37.8228 47.8521 37.8811 47.7883 37.9503 47.7379C38.0195 47.6876 38.098 47.6516 38.1813 47.6321C38.2646 47.6126 38.351 47.61 38.4353 47.6244C38.5197 47.6389 38.6002 47.6701 38.6723 47.7163C38.7443 47.7624 38.8064 47.8225 38.8548 47.8931C38.9032 47.9636 38.937 48.0432 38.9542 48.127C38.9713 48.2108 38.9715 48.2972 38.9546 48.3811C38.9378 48.465 38.9043 48.5447 38.8562 48.6154L36.7487 51.8979C36.6907 51.9885 36.6109 52.063 36.5165 52.1145C36.4221 52.1661 36.3162 52.193 36.2087 52.1929Z" fill="#5C5A53"/>
<path d="M24.909 51.2232C24.7966 51.2234 24.686 51.1939 24.5886 51.1377C24.4912 51.0815 24.4103 51.0007 24.354 50.9032L21.529 45.9882L17.189 49.8207C17.126 49.8764 17.0526 49.9191 16.9731 49.9464C16.8936 49.9737 16.8094 49.985 16.7255 49.9798C16.6416 49.9746 16.5595 49.9529 16.484 49.9159C16.4085 49.879 16.3409 49.8275 16.2853 49.7645C16.2296 49.7015 16.187 49.6281 16.1597 49.5486C16.1324 49.469 16.121 49.3849 16.1262 49.301C16.1315 49.2171 16.1532 49.135 16.1901 49.0594C16.227 48.9839 16.2785 48.9164 16.3415 48.8607L21.269 44.5082C21.3408 44.4455 21.4255 44.3994 21.5171 44.373C21.6087 44.3466 21.7049 44.3408 21.799 44.3557C21.8927 44.3716 21.9817 44.408 22.0595 44.4625C22.1374 44.517 22.2021 44.5881 22.249 44.6708L25.4565 50.2607C25.4986 50.3334 25.5259 50.4137 25.5368 50.4969C25.5478 50.5802 25.5421 50.6648 25.5203 50.7458C25.4985 50.8269 25.4608 50.9029 25.4096 50.9693C25.3583 51.0358 25.2944 51.0915 25.2215 51.1332C25.1268 51.1894 25.0192 51.2204 24.909 51.2232Z" fill="#5C5A53"/>
<path d="M24.0989 55.7386C23.9858 55.7387 23.8747 55.7089 23.7769 55.6523C23.679 55.5956 23.5978 55.5142 23.5414 55.4161L20.7264 50.5086L16.3864 54.3411C16.2591 54.4538 16.0923 54.5114 15.9225 54.501C15.7528 54.4907 15.5941 54.4134 15.4814 54.2861C15.3687 54.1588 15.3112 53.9919 15.3215 53.8222C15.3318 53.6525 15.4091 53.4938 15.5364 53.3811L20.4664 49.0286C20.5375 48.9655 20.6218 48.919 20.7132 48.8925C20.8045 48.866 20.9006 48.8602 20.9945 48.8756C21.0883 48.8909 21.1776 48.9269 21.2558 48.9811C21.334 49.0352 21.3991 49.1061 21.4464 49.1886L24.6589 54.7886C24.7143 54.8861 24.7433 54.9963 24.7429 55.1085C24.7424 55.2206 24.7127 55.3306 24.6566 55.4277C24.6005 55.5248 24.5199 55.6054 24.423 55.6617C24.326 55.718 24.216 55.748 24.1039 55.7486L24.0989 55.7386Z" fill="#5C5A53"/>
<path d="M21.6048 44.8961H21.5873C21.5175 44.8959 21.4483 44.884 21.3823 44.8611C18.5573 43.8886 18.4573 41.1386 18.7973 39.8211C18.8398 39.6553 18.9463 39.5132 19.0935 39.426C19.2408 39.3388 19.4166 39.3137 19.5823 39.3561C19.7481 39.3985 19.8902 39.5051 19.9774 39.6523C20.0646 39.7995 20.0898 39.9753 20.0473 40.1411C19.9395 40.6395 19.9301 41.1541 20.0198 41.6561C20.0923 42.1055 20.2875 42.5261 20.584 42.8716C20.8805 43.217 21.2666 43.4738 21.6998 43.6136C22.2223 43.5836 24.2348 43.3061 24.5323 40.7811C24.5422 40.6975 24.5684 40.6167 24.6095 40.5433C24.6506 40.4699 24.7057 40.4053 24.7717 40.3532C24.8378 40.301 24.9134 40.2624 24.9944 40.2396C25.0754 40.2167 25.16 40.21 25.2436 40.2198C25.3271 40.2297 25.4079 40.2559 25.4814 40.297C25.5548 40.338 25.6194 40.3932 25.6715 40.4592C25.7236 40.5253 25.7622 40.6009 25.7851 40.6819C25.808 40.7629 25.8147 40.8475 25.8048 40.9311C25.4273 44.0711 22.9098 44.8961 21.6048 44.8961Z" fill="#5C5A53"/>
<path d="M21.6986 44.9127H21.6011C21.4333 44.8868 21.2827 44.7954 21.1824 44.6585C21.0821 44.5216 21.0402 44.3504 21.0661 44.1827L21.6586 40.3202C21.6841 40.1521 21.7753 40.001 21.9122 39.9002C22.0491 39.7994 22.2205 39.7571 22.3886 39.7827C22.5566 39.8082 22.7077 39.8994 22.8085 40.0363C22.9093 40.1732 22.9516 40.3446 22.9261 40.5127L22.3386 44.3677C22.3156 44.5205 22.2382 44.6598 22.1206 44.76C22.003 44.8601 21.8531 44.9144 21.6986 44.9127Z" fill="#5C5A53"/>
<path d="M31.5094 75.4702C31.3638 75.4708 31.2224 75.4215 31.1087 75.3305C30.995 75.2396 30.9158 75.1124 30.8844 74.9702C30.7594 74.3902 27.9694 60.6827 36.0644 51.0977C36.1741 50.9681 36.3309 50.8874 36.5001 50.8733C36.6694 50.8592 36.8373 50.913 36.9669 51.0227C37.0965 51.1324 37.1773 51.2892 37.1913 51.4584C37.2054 51.6277 37.1516 51.7956 37.0419 51.9252C29.3494 61.0352 32.1069 74.5677 32.1369 74.7052C32.1694 74.8709 32.135 75.0427 32.0413 75.1832C31.9477 75.3236 31.8023 75.4214 31.6369 75.4552C31.5951 75.4646 31.5523 75.4697 31.5094 75.4702Z" fill="#5C5A53"/>
<path d="M30.8657 12.191L29.3857 8.53348C29.3508 8.41939 29.29 8.31491 29.208 8.22818C29.126 8.14145 29.0252 8.07482 28.9132 8.03348C28.7042 7.96907 28.479 7.98148 28.2782 8.06848C28.0913 8.13892 27.9348 8.27244 27.8357 8.44598C27.7895 8.52946 27.7604 8.62131 27.7501 8.71618C27.7398 8.81105 27.7485 8.90702 27.7757 8.99848C27.7834 9.05703 27.808 9.11209 27.8464 9.15696C27.8848 9.20184 27.9353 9.2346 27.992 9.25128C28.0487 9.26796 28.1089 9.26783 28.1655 9.25092C28.2221 9.234 28.2725 9.20102 28.3107 9.15598C28.3303 9.1203 28.3418 9.08076 28.3444 9.04015C28.347 8.99954 28.3406 8.95885 28.3257 8.92098C28.3103 8.86184 28.3156 8.7992 28.3407 8.74348C28.3692 8.68805 28.4174 8.64526 28.4757 8.62348C28.5064 8.60628 28.5406 8.59641 28.5757 8.59465C28.6108 8.59289 28.6458 8.59928 28.678 8.61333C28.7102 8.62738 28.7388 8.6487 28.7614 8.67562C28.7839 8.70254 28.8 8.73432 28.8082 8.76848L30.5032 12.961L33.3907 11.7935L33.1757 11.256L30.8657 12.191ZM40.4107 4.62848L37.0682 5.31598C36.8278 5.34871 36.6074 5.46778 36.4482 5.65098C36.3746 5.74114 36.3197 5.84505 36.2867 5.95664C36.2536 6.06823 36.2431 6.18528 36.2557 6.30098C36.2907 6.63598 36.5057 6.85598 36.8157 6.71598C36.8582 6.69164 36.8944 6.65764 36.9214 6.61674C36.9483 6.57584 36.9653 6.52917 36.9709 6.48051C36.9765 6.43185 36.9705 6.38256 36.9536 6.33661C36.9366 6.29066 36.9091 6.24934 36.8732 6.21598C36.7457 6.08848 36.9982 5.91598 37.1832 5.89848L38.1232 10.431L38.7357 10.3035L38.2357 7.88848L40.1007 7.50348L39.9807 6.92848L38.1157 7.31348L37.7957 5.75598L40.5257 5.19348L40.4107 4.62848ZM33.9107 6.23848C33.7084 6.15552 33.4829 6.14842 33.2757 6.21848C33.0841 6.27318 32.9171 6.3924 32.8032 6.55598C32.7495 6.63582 32.7122 6.72562 32.6938 6.82009C32.6753 6.91456 32.676 7.01177 32.6957 7.10598C32.6971 7.11426 32.6971 7.1227 32.6957 7.13098C32.7064 7.18622 32.7322 7.23742 32.7702 7.27892C32.8082 7.32042 32.8569 7.35061 32.911 7.36613C32.9651 7.38166 33.0224 7.38192 33.0766 7.36689C33.1309 7.35187 33.1799 7.32213 33.2182 7.28098C33.2383 7.24841 33.2513 7.21202 33.2564 7.17414C33.2616 7.13626 33.2588 7.09772 33.2482 7.06098C33.2376 7.00202 33.2473 6.94122 33.2757 6.88848C33.3096 6.83534 33.3623 6.79694 33.4232 6.78098C33.4549 6.76614 33.4897 6.75897 33.5246 6.76007C33.5596 6.76117 33.5938 6.7705 33.6245 6.78731C33.6552 6.80411 33.6815 6.82792 33.7012 6.85679C33.721 6.88566 33.7337 6.91879 33.7382 6.95348L35.0707 11.276L35.6682 11.0935L34.3357 6.76848C34.3101 6.65352 34.2585 6.54596 34.1848 6.45407C34.1112 6.36219 34.0174 6.28844 33.9107 6.23848ZM26.4807 10.4685C26.1233 10.2262 25.7069 10.0853 25.2757 10.061C24.8286 10.038 24.3829 10.1292 23.9807 10.326L22.1982 11.306L24.7532 15.9085L25.1457 15.7335C25.4657 15.5918 25.6857 15.4868 25.8057 15.4185L26.0382 15.291L26.3707 15.106C26.7941 14.8811 27.1503 14.5482 27.4032 14.141C27.6409 13.7527 27.7663 13.3062 27.7657 12.851C27.7611 12.3677 27.631 11.8939 27.3882 11.476C27.1708 11.0715 26.8586 10.7258 26.4782 10.4685H26.4807ZM27.0907 13.4335C26.9232 13.9335 26.5207 14.3685 25.8807 14.7235C25.6307 14.861 25.3582 15.001 25.0432 15.146L23.0307 11.516L24.1882 10.8735C24.4151 10.7481 24.6652 10.6706 24.9232 10.6457C25.1812 10.6207 25.4416 10.6489 25.6882 10.7285C26.198 10.9248 26.6144 11.3072 26.8532 11.7985C27.0066 12.0386 27.1069 12.3086 27.1474 12.5906C27.1879 12.8726 27.1678 13.1599 27.0882 13.4335H27.0907ZM21.0682 17.7835L18.7407 14.601C18.678 14.5005 18.5931 14.4156 18.4926 14.3528C18.3921 14.29 18.2786 14.2509 18.1607 14.2385C17.9422 14.2284 17.7271 14.2957 17.5532 14.4285C17.3889 14.5427 17.2695 14.7107 17.2157 14.9035C17.191 15.0018 17.1864 15.1041 17.2023 15.2042C17.2182 15.3043 17.2543 15.4002 17.3082 15.486C17.3383 15.5338 17.3811 15.5725 17.4317 15.5976C17.4823 15.6228 17.5389 15.6335 17.5952 15.6286C17.6516 15.6237 17.7055 15.6034 17.751 15.5698C17.7965 15.5363 17.8319 15.4908 17.8532 15.4385C17.859 15.3993 17.8566 15.3593 17.8463 15.321C17.836 15.2827 17.8179 15.247 17.7932 15.216C17.7734 15.1695 17.7665 15.1186 17.7732 15.0685C17.7874 15.0074 17.824 14.9539 17.8757 14.9185C17.9008 14.8939 17.9314 14.8756 17.9649 14.8651C17.9984 14.8546 18.0339 14.8522 18.0685 14.858C18.1032 14.8639 18.1359 14.8778 18.1641 14.8988C18.1923 14.9197 18.2151 14.947 18.2307 14.9785L20.9107 18.621L23.4107 16.7835L23.0682 16.316L21.0682 17.7835ZM12.5357 18.911L14.8857 22.716L15.1007 22.966L14.8257 22.796L10.7507 20.9685L10.3782 21.3935L12.7282 25.201L12.9282 25.4235L12.6782 25.251L9.36074 23.7635L9.19324 23.6785C9.02127 23.5832 8.82272 23.5472 8.62824 23.576C8.46425 23.6101 8.31639 23.6981 8.20824 23.826C8.15885 23.8815 8.11761 23.9438 8.08574 24.011C8.01546 24.1421 7.98735 24.2916 8.00525 24.4393C8.02315 24.587 8.08618 24.7255 8.18574 24.836C8.23125 24.8883 8.29453 24.9218 8.36334 24.9301C8.43214 24.9384 8.50159 24.9209 8.55824 24.881C8.65824 24.8185 8.74824 24.601 8.64824 24.5035C8.63679 24.4933 8.62593 24.4824 8.61574 24.471C8.58868 24.4407 8.57372 24.4016 8.57372 24.361C8.57372 24.3204 8.58868 24.2812 8.61574 24.251C8.67574 24.181 8.77074 24.181 8.90324 24.251L9.06824 24.326L13.2382 26.076L13.6082 25.651L11.3582 21.901L15.4107 23.5935L15.7807 23.1685L12.9432 18.4385L12.5357 18.911ZM15.3607 16.5085C15.1412 16.5186 14.9327 16.6073 14.7732 16.7585C14.6215 16.8868 14.5183 17.0633 14.4807 17.2585C14.4505 17.4398 14.4907 17.6259 14.5932 17.7785C14.6015 17.794 14.6107 17.809 14.6207 17.8235C14.6536 17.8699 14.6987 17.9062 14.7511 17.9283C14.8035 17.9504 14.861 17.9574 14.9171 17.9486C14.9733 17.9397 15.0258 17.9154 15.0689 17.8783C15.1119 17.8411 15.1437 17.7927 15.1607 17.7385C15.1674 17.7021 15.1666 17.6647 15.1584 17.6286C15.1502 17.5926 15.1349 17.5585 15.1132 17.5285C15.0777 17.4783 15.0609 17.4173 15.0657 17.356C15.0692 17.3246 15.079 17.2943 15.0945 17.2668C15.1099 17.2393 15.1308 17.2152 15.1557 17.196C15.1788 17.17 15.2075 17.1497 15.2397 17.1367C15.2719 17.1237 15.3067 17.1183 15.3413 17.1209C15.3759 17.1236 15.4095 17.1343 15.4393 17.152C15.4691 17.1698 15.4944 17.1943 15.5132 17.2235L18.5132 20.6185L18.9807 20.206L15.9807 16.811C15.9073 16.7161 15.8128 16.6394 15.7049 16.5869C15.5969 16.5344 15.4783 16.5076 15.3582 16.5085H15.3607ZM60.1807 8.62098C60.1261 8.87366 60.0225 9.11318 59.8757 9.32598C59.7342 9.53316 59.5376 9.69678 59.3082 9.79848C59.0617 9.89328 58.7931 9.91492 58.5345 9.86082C58.276 9.80672 58.0386 9.67917 57.8507 9.49348C57.6802 9.31029 57.5634 9.08366 57.5132 8.83848C57.4571 8.57645 57.4571 8.30551 57.5132 8.04348L58.0332 5.65348C58.0913 5.43214 58.0599 5.19681 57.9457 4.99848C57.8831 4.90108 57.8007 4.818 57.7037 4.75467C57.6068 4.69134 57.4976 4.64919 57.3832 4.63098C57.2288 4.59136 57.0662 4.59832 56.9157 4.65098C56.8078 4.68966 56.7108 4.754 56.6332 4.83848C56.6332 4.83848 56.6332 4.85098 56.6157 4.85848C56.5754 4.89665 56.5472 4.94588 56.5346 5C56.5221 5.05412 56.5258 5.11073 56.5453 5.16276C56.5648 5.21479 56.5992 5.25992 56.6441 5.29251C56.6891 5.32509 56.7427 5.34369 56.7982 5.34598C56.8907 5.37598 56.9632 5.24598 57.0482 5.19598C57.1135 5.16994 57.1853 5.16556 57.2532 5.18348C57.2894 5.18857 57.3237 5.20269 57.353 5.22454C57.3823 5.24639 57.4056 5.27525 57.4207 5.30848C57.4472 5.37528 57.4524 5.4486 57.4357 5.51848L56.9107 7.90848C56.8269 8.26613 56.8269 8.63833 56.9107 8.99598C56.9915 9.33844 57.1644 9.65229 57.4107 9.90348C57.6791 10.1685 58.0202 10.3478 58.3907 10.4185C58.7642 10.5109 59.1572 10.4856 59.5157 10.346C59.8432 10.2141 60.1272 9.9933 60.3357 9.70848C60.5479 9.42522 60.6963 9.09944 60.7707 8.75348L61.4457 5.65848L60.8332 5.52598L60.1807 8.62098ZM77.6057 13.3185C77.4951 13.1307 77.3429 12.9707 77.1607 12.851L75.7307 11.866C75.5428 11.7138 75.3045 11.638 75.0632 11.6535C74.9527 11.6537 74.844 11.6823 74.7477 11.7366C74.6514 11.7909 74.5707 11.869 74.5132 11.9635C74.4656 12.0226 74.433 12.0923 74.4182 12.1668C74.4034 12.2412 74.4068 12.3182 74.4282 12.391C74.4384 12.4339 74.4581 12.4739 74.4859 12.5082C74.5136 12.5425 74.5486 12.5701 74.5885 12.5891C74.6283 12.608 74.6718 12.6178 74.7159 12.6177C74.76 12.6176 74.8035 12.6076 74.8432 12.5885C75.1132 12.4485 74.9432 12.241 75.0157 12.1835C75.0882 12.126 75.2482 12.226 75.3882 12.3485L72.7532 16.166L73.2657 16.521L74.4407 14.8185C74.666 14.9909 74.8775 15.1807 75.0732 15.386C75.1337 15.498 75.1647 15.6236 75.1632 15.751C75.1632 15.8985 75.1632 16.001 75.1632 16.046L75.1932 17.546C75.1955 17.6681 75.2263 17.7879 75.2832 17.896C75.3419 18.0072 75.4276 18.1019 75.5324 18.1714C75.6373 18.2409 75.7579 18.2828 75.8832 18.2935C76.0152 18.3075 76.1485 18.2877 76.2707 18.236L76.0732 17.696C76.0466 17.7161 76.0147 17.7281 75.9814 17.7307C75.9481 17.7333 75.9147 17.7262 75.8853 17.7105C75.8559 17.6947 75.8315 17.6708 75.8152 17.6417C75.7989 17.6125 75.7913 17.5793 75.7932 17.546L75.7757 16.191L75.7507 15.786C75.7498 15.6802 75.7186 15.577 75.6607 15.4885C75.7385 15.5411 75.8225 15.584 75.9107 15.616C75.9909 15.6475 76.075 15.6677 76.1607 15.676C76.4126 15.688 76.6632 15.6346 76.8882 15.521C77.1168 15.4042 77.3126 15.2323 77.4582 15.021C77.6372 14.7647 77.7442 14.4651 77.7682 14.1535C77.8012 13.8648 77.7436 13.5729 77.6032 13.3185H77.6057ZM76.9507 14.6685C76.8827 14.7811 76.7924 14.8786 76.6853 14.9551C76.5783 15.0316 76.4568 15.0855 76.3282 15.1135C76.2 15.1345 76.0688 15.129 75.9427 15.0971C75.8167 15.0653 75.6986 15.0079 75.5957 14.9285L74.7732 14.336L75.9157 12.686L76.8182 13.3085C76.9194 13.3752 77.004 13.4642 77.0655 13.5686C77.1271 13.673 77.1639 13.7901 77.1732 13.911C77.1925 14.1824 77.1126 14.4516 76.9482 14.6685H76.9507ZM88.7832 23.9185C88.7354 23.7123 88.6423 23.5193 88.5107 23.3535C88.356 23.1544 88.1575 22.9936 87.9307 22.8835C87.7165 22.7756 87.4776 22.7265 87.2382 22.741C87.0018 22.7555 86.7756 22.8428 86.5907 22.991C86.3986 23.1343 86.2597 23.3375 86.1957 23.5685C86.1359 23.7968 86.1223 24.0348 86.1557 24.2685C86.1882 24.5185 86.2507 24.8535 86.3457 25.296C86.4198 25.5558 86.4427 25.8275 86.4132 26.096C86.3763 26.2902 86.2662 26.4629 86.1057 26.5785C85.9962 26.6715 85.8675 26.7391 85.7287 26.7762C85.5899 26.8134 85.4446 26.8193 85.3032 26.7935C85.0132 26.7426 84.7537 26.5825 84.5782 26.346C84.394 26.1115 84.2897 25.8241 84.2807 25.526C84.2665 25.3831 84.2813 25.2387 84.3242 25.1017C84.3672 24.9646 84.4374 24.8377 84.5307 24.7285L84.0307 24.361C83.8585 24.5685 83.7438 24.8177 83.6982 25.0835C83.6484 25.362 83.6612 25.6481 83.7357 25.921C83.8126 26.2068 83.947 26.4739 84.1307 26.706C84.3159 26.9437 84.555 27.1339 84.8282 27.261C85.0943 27.3847 85.3885 27.4356 85.6807 27.4085C85.9786 27.3793 86.2613 27.2627 86.4932 27.0735C86.7267 26.9025 86.8923 26.6546 86.9607 26.3735C87.0236 26.0139 87.0168 25.6455 86.9407 25.2885L86.8782 24.9885C86.8257 24.7385 86.7907 24.521 86.7682 24.3485C86.7443 24.1827 86.7443 24.0143 86.7682 23.8485C86.7807 23.7649 86.8109 23.6848 86.8566 23.6137C86.9023 23.5426 86.9626 23.482 87.0335 23.4359C87.1044 23.3899 87.1843 23.3594 87.2678 23.3464C87.3514 23.3335 87.4367 23.3385 87.5182 23.361C87.7259 23.4073 87.9102 23.5261 88.0382 23.696C88.105 23.7826 88.155 23.881 88.1857 23.986C88.2221 24.0867 88.2341 24.1947 88.2207 24.301C88.21 24.3888 88.1704 24.4706 88.1082 24.5335C88.0525 24.5799 88.0165 24.6458 88.0077 24.7178C87.9989 24.7898 88.0179 24.8625 88.0607 24.921C88.0897 24.9519 88.1248 24.9766 88.1637 24.9935C88.2026 25.0104 88.2446 25.0191 88.287 25.0191C88.3294 25.0191 88.3714 25.0104 88.4103 24.9935C88.4492 24.9766 88.4842 24.9519 88.5132 24.921L88.5357 24.9035C88.6546 24.7981 88.7377 24.6583 88.7732 24.5035C88.8223 24.3136 88.8249 24.1146 88.7807 23.9235L88.7832 23.9185ZM72.7832 10.1685L71.3482 12.9935C71.2336 13.2252 71.0728 13.4311 70.8757 13.5985C70.6864 13.7628 70.4554 13.8718 70.2082 13.9135C69.9415 13.9526 69.6694 13.9035 69.4332 13.7735C69.1976 13.6603 69.0029 13.4769 68.8757 13.2485C68.7558 13.0292 68.7003 12.7804 68.7157 12.531C68.7284 12.2628 68.8001 12.0007 68.9257 11.7635L70.0307 9.58348C70.1429 9.3843 70.1717 9.14881 70.1107 8.92848C70.0406 8.74676 69.9154 8.5915 69.7527 8.48438C69.59 8.37726 69.3979 8.32363 69.2032 8.33098C69.0813 8.34049 68.9641 8.38187 68.8632 8.45098C68.8096 8.47466 68.7645 8.51432 68.7342 8.56455C68.7039 8.61479 68.6899 8.67314 68.694 8.73166C68.6981 8.79018 68.7201 8.846 68.7571 8.89151C68.7941 8.93703 68.8443 8.97002 68.9007 8.98598C68.9982 9.04598 69.1207 8.88598 69.2157 8.89098C69.2742 8.88901 69.332 8.90283 69.3832 8.93098C69.4171 8.94527 69.4467 8.96789 69.4695 8.99675C69.4922 9.0256 69.5073 9.05974 69.5132 9.09598C69.523 9.16737 69.5099 9.24003 69.4757 9.30348L68.3582 11.4885C68.1897 11.8141 68.099 12.1744 68.0932 12.541C68.0848 12.9059 68.1823 13.2654 68.374 13.576C68.5657 13.8866 68.8433 14.1349 69.1732 14.291C69.5111 14.4761 69.8982 14.5512 70.2807 14.506C70.6312 14.46 70.962 14.3171 71.2357 14.0935C71.5119 13.8736 71.7371 13.5964 71.8957 13.281L73.3307 10.456L72.7832 10.1685ZM81.1507 15.9885C81.1083 15.7736 80.9915 15.5806 80.8207 15.4435C80.6702 15.3133 80.4797 15.2383 80.2807 15.231C80.0963 15.2251 79.9169 15.2915 79.7807 15.416C79.7657 15.416 79.7582 15.4385 79.7457 15.4485L79.7282 15.4635C79.6949 15.5051 79.6734 15.5549 79.6659 15.6077C79.6585 15.6604 79.6653 15.7143 79.6857 15.7635C79.6964 15.8033 79.7168 15.8399 79.7451 15.8699C79.7733 15.9 79.8086 15.9226 79.8477 15.9357C79.8868 15.9488 79.9285 15.9521 79.9692 15.9451C80.0099 15.9382 80.0482 15.9213 80.0807 15.896L80.0957 15.8835C80.139 15.8472 80.1921 15.8246 80.2482 15.8185C80.2795 15.8173 80.3106 15.8225 80.3399 15.8337C80.3691 15.8448 80.3957 15.8618 80.4182 15.8835C80.4479 15.9019 80.4727 15.9271 80.4908 15.9569C80.5089 15.9868 80.5198 16.0205 80.5224 16.0553C80.5251 16.0901 80.5196 16.125 80.5062 16.1573C80.4929 16.1895 80.4722 16.2182 80.4457 16.241L77.5432 19.7385L78.0232 20.1385L80.9232 16.6685C81.0081 16.5823 81.0719 16.4776 81.1096 16.3627C81.1473 16.2478 81.158 16.1257 81.1407 16.006L81.1507 15.9885ZM52.9832 4.91848C53.0053 4.80107 52.9999 4.68014 52.9674 4.56519C52.9348 4.45023 52.8761 4.34439 52.7957 4.25598C52.639 4.10681 52.4343 4.0182 52.2182 4.00598C52.0201 3.98273 51.8199 4.0277 51.6507 4.13348C51.5709 4.18613 51.5024 4.25415 51.4492 4.33355C51.396 4.41296 51.3591 4.50217 51.3407 4.59598C51.3407 4.59598 51.3407 4.61348 51.3407 4.62348C51.3308 4.67857 51.3363 4.73532 51.3565 4.78753C51.3767 4.83973 51.4108 4.88537 51.4552 4.91944C51.4996 4.95352 51.5526 4.97473 51.6082 4.98073C51.6639 4.98673 51.7201 4.9773 51.7707 4.95348C51.8287 4.90872 51.8672 4.84337 51.8782 4.77098C51.8921 4.71302 51.9246 4.66121 51.9707 4.62348C52.0224 4.58745 52.0858 4.57227 52.1482 4.58098C52.1833 4.57981 52.2182 4.58686 52.25 4.60157C52.2819 4.61627 52.3099 4.63823 52.3317 4.66568C52.3536 4.69313 52.3687 4.72531 52.3759 4.75966C52.3832 4.794 52.3822 4.82956 52.3732 4.86348L51.9307 9.36348L55.0307 9.66848L55.0882 9.09098L52.6082 8.84098L52.9832 4.91848ZM44.0882 8.87848L43.9332 6.98098L45.8307 6.82598L45.7857 6.23848L43.8882 6.39348L43.7582 4.80848L46.5357 4.58098L46.4882 4.00348L43.0957 4.28098C42.8552 4.28314 42.6236 4.3719 42.4432 4.53098C42.3734 4.60859 42.3225 4.70142 42.2948 4.80209C42.267 4.90276 42.263 5.00852 42.2832 5.11098C42.2904 5.17842 42.3139 5.24307 42.3519 5.29929C42.3898 5.35551 42.4409 5.40158 42.5007 5.43348C42.6307 5.47848 42.8457 5.53098 42.8957 5.25098C42.9307 5.05848 42.7632 5.15848 42.8157 4.96598C42.8457 4.85098 43.0057 4.87348 43.1357 4.86348L43.5132 9.48598L46.9107 9.23848L46.8657 8.66098L44.0882 8.87848ZM83.4582 21.8785L83.8707 21.471L82.5332 20.1185L83.6607 18.9885L85.6182 20.9735L86.0307 20.566L83.6382 18.1435C83.4809 17.9597 83.2608 17.8412 83.0207 17.811C82.8209 17.799 82.6236 17.8604 82.4657 17.9835C82.422 18.011 82.3824 18.0447 82.3482 18.0835L82.3257 18.1035C82.2907 18.144 82.2651 18.1918 82.2507 18.2435C82.2007 18.471 82.3957 18.7435 82.6382 18.5935C82.7232 18.5435 82.7782 18.4585 82.8707 18.4185C82.9009 18.4066 82.9334 18.4015 82.9657 18.4035C83.0642 18.4207 83.153 18.4731 83.2157 18.551L79.9157 21.801L82.3132 24.2285L82.7232 23.8235L80.7657 21.8385L82.1207 20.501L83.4582 21.8785ZM66.8557 7.42098L64.9732 8.84848L64.6607 6.98848C64.6412 6.84791 64.588 6.71413 64.5057 6.59848C64.4306 6.49724 64.327 6.42065 64.2082 6.37848C64.0827 6.33465 63.9472 6.32857 63.8182 6.36098C63.6626 6.38582 63.5199 6.46245 63.4132 6.57848C63.3747 6.62195 63.3505 6.67636 63.3443 6.73415C63.338 6.79193 63.3499 6.85024 63.3782 6.90098C63.4086 6.95801 63.458 7.00255 63.5179 7.02678C63.5778 7.051 63.6443 7.05337 63.7057 7.03348C63.7322 7.01821 63.7573 7.00064 63.7807 6.98098C63.8071 6.96246 63.8356 6.94734 63.8657 6.93598C63.8938 6.93058 63.9227 6.93058 63.9507 6.93598C63.9814 6.95175 64.0077 6.97483 64.0273 7.00317C64.0469 7.03151 64.0593 7.06424 64.0632 7.09848L64.4607 9.18348L61.9932 11.2385L62.6807 11.4885L64.5832 9.85098L64.8332 11.7035C64.8511 11.8785 64.9029 12.0483 64.9857 12.2035C65.0654 12.338 65.1918 12.4385 65.3407 12.486C65.54 12.5615 65.7611 12.5552 65.9557 12.4685C66.0564 12.4253 66.146 12.3599 66.2179 12.2772C66.2897 12.1945 66.342 12.0967 66.3707 11.991L65.8332 11.7735C65.8098 11.8279 65.7706 11.874 65.7207 11.906C65.7003 11.9223 65.676 11.9331 65.6502 11.9375C65.6244 11.9418 65.5979 11.9396 65.5732 11.931C65.5518 11.9242 65.5327 11.9118 65.5177 11.8951C65.5028 11.8784 65.4926 11.858 65.4882 11.836L65.1057 9.48848L67.5532 7.66848L66.8557 7.42098Z" fill="#5C5A53"/>
<path d="M76.0156 17.738C76.0906 17.6855 76.0881 17.6905 76.1231 17.6805C76.4981 17.618 76.5381 18.1955 76.1656 18.2805" fill="#5C5A53"/>
<path d="M65.8281 11.7726C65.8488 11.7393 65.8769 11.7113 65.9104 11.6909C65.9438 11.6705 65.9816 11.6582 66.0206 11.6551C66.0765 11.6479 66.1332 11.6549 66.1857 11.6754C66.2381 11.696 66.2845 11.7294 66.3206 11.7726C66.3563 11.8111 66.3775 11.8608 66.3807 11.9132C66.3839 11.9656 66.3688 12.0175 66.3381 12.0601" fill="#5C5A53"/>
</svg>
